<?xml version="1.0" encoding="UTF-8" standalone="no"?>
<!-- Created with Inkscape (http://www.inkscape.org/) -->

<svg
   width="150mm"
   height="150mm"
   viewBox="0 0 150 150"
   version="1.1"
   id="svg5"
   inkscape:export-filename="C:\Users\eliso\Documents\GitHub\marinecoders.github.io\assets\press\marinecoders_profile.png"
   inkscape:export-xdpi="86.699997"
   inkscape:export-ydpi="86.699997"
   inkscape:version="1.1.1 (3bf5ae0d25, 2021-09-20)"
   sodipodi:docname="marinecoders_small_text.svg"
   xmlns:inkscape="http://www.inkscape.org/namespaces/inkscape"
   xmlns:sodipodi="http://sodipodi.sourceforge.net/DTD/sodipodi-0.dtd"
   xmlns="http://www.w3.org/2000/svg"
   xmlns:svg="http://www.w3.org/2000/svg">
  <sodipodi:namedview
     id="namedview7"
     pagecolor="#979797"
     bordercolor="#666666"
     borderopacity="1.0"
     inkscape:pageshadow="2"
     inkscape:pageopacity="0"
     inkscape:pagecheckerboard="0"
     inkscape:document-units="mm"
     showgrid="false"
     inkscape:zoom="1.0104048"
     inkscape:cx="283.54972"
     inkscape:cy="333.03484"
     inkscape:window-width="1920"
     inkscape:window-height="991"
     inkscape:window-x="-9"
     inkscape:window-y="-9"
     inkscape:window-maximized="1"
     inkscape:current-layer="layer1" />
  <defs
     id="defs2">
    <rect
       x="-757.36969"
       y="449.81973"
       width="272.73254"
       height="180.21141"
       id="rect39684" />
  </defs>
  <g
     inkscape:label="Layer 1"
     inkscape:groupmode="layer"
     id="layer1">
    <circle
       style="fill:#d02929;fill-opacity:1;stroke:none;stroke-width:1;stroke-linecap:round;stroke-linejoin:round;paint-order:stroke fill markers"
       id="path19550"
       cx="164.28506"
       cy="16.803446"
       r="5" />
    <circle
       style="fill:#961c1c;fill-opacity:1;stroke:none;stroke-width:1;stroke-linecap:round;stroke-linejoin:round;paint-order:stroke fill markers"
       id="path19550-5"
       cx="164.47021"
       cy="22.821222"
       r="5" />
    <circle
       style="fill:#6f1414;fill-opacity:1;stroke:none;stroke-width:1;stroke-linecap:round;stroke-linejoin:round;paint-order:stroke fill markers"
       id="path19550-6"
       cx="164.37764"
       cy="28.931559"
       r="5" />
    <circle
       style="fill:#3a0b0b;fill-opacity:1;stroke:none;stroke-width:1;stroke-linecap:round;stroke-linejoin:round;paint-order:stroke fill markers"
       id="path19550-6-8"
       cx="164.47023"
       cy="34.949337"
       r="5" />
    <circle
       style="fill:#1a0505;fill-opacity:1;stroke:none;stroke-width:1;stroke-linecap:round;stroke-linejoin:round;paint-order:stroke fill markers"
       id="path19550-6-8-1"
       cx="164.56281"
       cy="40.226467"
       r="5" />
    <path
       style="fill:#c00909;stroke-width:0.169818"
       d="m 28.081685,112.82715 c -0.139612,-0.16345 -0.597925,-0.83212 -1.018462,-1.48592 -0.420549,-0.6538 -0.910412,-1.409 -1.088581,-1.67819 -0.178169,-0.26921 -0.400369,-0.61468 -0.493776,-0.76771 -0.09336,-0.15304 -0.341759,-0.51771 -0.551912,-0.81039 -0.21014,-0.29269 -0.382081,-0.58089 -0.382081,-0.64047 0,-0.0596 -0.07929,-0.20062 -0.17629,-0.31342 -0.189742,-0.22076 -1.143571,-1.70003 -2.370997,-3.67711 -0.420306,-0.677 -0.859705,-1.33269 -0.976464,-1.45707 -0.116759,-0.12443 -0.212263,-0.27355 -0.212263,-0.33148 0,-0.0579 -0.296194,-0.54101 -0.658211,-1.0735 -0.362016,-0.53249 -0.921307,-1.388463 -1.242861,-1.902163 -0.321553,-0.5137 -1.190748,-1.866709 -1.931533,-3.006687 -0.740786,-1.139978 -1.464652,-2.28626 -1.608599,-2.547286 -0.143935,-0.261026 -1.00364,-1.592345 -1.910459,-2.958487 -0.906805,-1.366129 -1.648742,-2.569717 -1.648742,-2.674634 0,-0.104865 -0.07648,-0.190766 -0.169818,-0.190766 -0.09336,0 -0.169818,-0.08146 -0.169818,-0.181148 0,-0.09962 -0.191047,-0.431624 -0.424552,-0.737768 -0.233492,-0.30613 -0.424539,-0.638541 -0.424539,-0.738701 0,-0.100134 -0.06126,-0.207557 -0.136236,-0.238697 -0.126734,-0.05269 -2.0714139,-2.965034 -2.0714139,-3.102127 0,-0.06739 -1.1028533,-1.772189 -1.3255263,-2.049047 -0.075068,-0.09336 -0.5429094,-0.819371 -1.03955,-1.61328 -0.4966278,-0.793896 -1.1993037,-1.879126 -1.561499,-2.411613 -0.3621953,-0.532487 -0.65853,-1.074577 -0.65853,-1.204649 0,-0.130072 0.3178449,-0.72604 0.7063333,-1.324401 0.3884757,-0.598347 1.0771609,-1.661044 1.5303974,-2.361546 0.4532494,-0.700502 0.8986593,-1.388266 0.9898284,-1.528364 0.091182,-0.140098 0.5363105,-0.827862 0.9892277,-1.528364 0.4529296,-0.700515 1.1225088,-1.732161 1.4879524,-2.292565 0.3654564,-0.560404 0.695143,-1.091842 0.732639,-1.180978 0.03747,-0.08914 0.133282,-0.241958 0.212852,-0.339636 0.291858,-0.358206 1.28184,-1.895825 1.672375,-2.597489 0.220934,-0.396951 0.455129,-0.72173 0.52044,-0.72173 0.06535,0 0.167081,-0.133733 0.226164,-0.297183 0.138729,-0.383761 0.327999,-0.696284 1.471839,-2.430335 0.519916,-0.788173 1.360515,-2.0826 1.868013,-2.876503 0.507485,-0.793903 0.980033,-1.468933 1.050075,-1.500066 0.07008,-0.03114 0.127373,-0.128294 0.127373,-0.215914 0,-0.143636 0.80515,-1.472877 1.017848,-1.680397 0.196495,-0.191701 1.189789,-1.902409 1.189789,-2.049111 0,-0.08719 0.07085,-0.158533 0.157375,-0.158533 0.08658,0 0.1823,-0.09553 0.212788,-0.212275 0.03044,-0.116746 0.723853,-1.224361 1.54082,-2.461359 0.816966,-1.236996 1.485395,-2.314116 1.485395,-2.393598 0,-0.07948 0.133729,-0.266188 0.297191,-0.414904 0.16345,-0.148715 0.450014,-0.561756 0.636815,-0.917868 0.186802,-0.356113 0.473366,-0.79562 0.636815,-0.976682 0.16345,-0.181063 0.297192,-0.388814 0.297192,-0.461672 0,-0.07286 0.292831,-0.57427 0.650729,-1.114255 0.357911,-0.539984 0.964725,-1.478509 1.348481,-2.085612 0.383757,-0.607102 0.860921,-1.313972 1.06037,-1.570824 l 0.36263,-0.467002 h 8.393118 c 6.128406,0 8.393105,0.05181 8.393105,0.191992 0,0.105595 -0.267458,0.564284 -0.594357,1.019306 -0.3269,0.455023 -0.594371,0.867189 -0.594371,0.915925 0,0.08139 -0.669668,1.117881 -1.533172,2.372977 -0.192774,0.2802 -0.977424,1.503739 -1.743671,2.718975 -0.766247,1.215237 -1.527853,2.399723 -1.692466,2.632193 -0.499377,0.705242 -1.823445,2.755899 -1.823445,2.824071 0,0.03513 -0.496718,0.791397 -1.103825,1.680594 -0.607095,0.889199 -1.103812,1.648151 -1.103812,1.686562 0,0.03842 -0.614436,1.010544 -1.365413,2.160296 -0.750966,1.149754 -1.496048,2.302923 -1.655725,2.562601 -0.15969,0.259677 -0.882584,1.386303 -1.606438,2.503613 -0.72384,1.11731 -1.316088,2.108438 -1.316088,2.202506 0,0.09407 -0.06906,0.171033 -0.153615,0.171033 -0.08453,0 -0.387363,0.401202 -0.673058,0.891551 -0.735376,1.262133 -1.105142,1.868819 -1.263514,2.073063 -0.209962,0.270784 -1.593637,2.393147 -2.562121,3.929939 -0.476742,0.756502 -1.15338,1.808738 -1.503631,2.338309 -0.350251,0.529571 -0.636815,1.03143 -0.636815,1.115232 0,0.08376 -0.06036,0.177837 -0.134062,0.208977 -0.161659,0.06829 -1.224484,1.787919 -1.224484,1.981217 0,0.07507 0.439399,0.823476 0.976451,1.663231 1.183958,1.851273 1.134978,1.775617 2.080277,3.213247 0.828514,1.26001 1.101331,1.693169 2.098014,3.331207 0.360008,0.591659 0.761209,1.136857 0.891549,1.211555 0.130353,0.07468 0.236996,0.278469 0.236996,0.45284 0,0.174384 0.05729,0.342527 0.127373,0.373654 0.07008,0.03108 0.32314,0.362285 0.562412,0.735887 0.239285,0.373603 0.736003,1.132868 1.103825,1.687274 0.367822,0.554393 0.745185,1.136525 0.838592,1.293631 0.216943,0.364907 0.684682,1.074923 1.298836,1.9716 0.266333,0.388873 0.484261,0.760723 0.484261,0.826341 0,0.06561 0.254849,0.473429 0.566338,0.906243 0.311502,0.432813 0.860857,1.283656 1.220814,1.890764 0.359957,0.607094 0.697343,1.142024 0.74975,1.188727 0.175893,0.156749 0.859476,1.173829 0.859476,1.278797 0,0.05716 0.343882,0.585713 0.764175,1.174712 0.420307,0.588999 0.764189,1.119081 0.764189,1.177959 0,0.05883 0.4012,0.701918 0.891549,1.428968 0.490348,0.72706 1.006172,1.51799 1.146282,1.75763 0.140098,0.23963 0.548959,0.886 0.908596,1.43638 1.267607,1.93996 1.771141,2.71641 2.906566,4.48197 0.630689,0.9807 1.444024,2.2281 1.807421,2.772 0.363385,0.54389 0.660705,1.05971 0.660705,1.14627 0,0.0866 0.07648,0.15738 0.169818,0.15738 0.09336,0 0.169818,0.11459 0.169818,0.25473 0,0.22299 -1.044282,0.25473 -8.379703,0.25473 -7.770766,0 -8.398169,-0.0216 -8.633554,-0.29718 z m 75.093505,0.0849 c 0.10197,-0.11676 0.49835,-0.70899 0.88085,-1.3161 1.11564,-1.77077 2.3162,-3.64322 3.702,-5.77385 0.0912,-0.14009 0.48394,-0.75143 0.87293,-1.35854 0.38898,-0.60711 1.20529,-1.86801 1.81402,-2.80201 0.60873,-0.93401 1.34875,-2.080289 1.64448,-2.547286 0.29574,-0.466997 0.93324,-1.460444 1.41667,-2.20765 0.48343,-0.747192 0.95243,-1.473169 1.04221,-1.613279 0.22318,-0.348256 1.28641,-1.983327 2.48463,-3.820917 0.54812,-0.840599 1.03538,-1.612563 1.08278,-1.715447 0.0475,-0.102947 0.36256,-0.599613 0.70033,-1.103824 0.33777,-0.504212 1.03143,-1.566308 1.54146,-2.360204 2.91736,-4.541138 4.16236,-6.474948 5.32423,-8.26999 0.55612,-0.859182 1.17004,-1.852629 1.36427,-2.20765 0.34661,-0.633516 0.34732,-0.655934 0.0393,-1.208294 -0.55037,-0.986746 -3.09792,-4.869188 -3.23362,-4.928003 -0.0719,-0.03108 -0.1306,-0.125199 -0.1306,-0.208989 0,-0.164063 -0.91719,-1.670955 -1.71579,-2.818913 -0.27051,-0.388872 -0.49185,-0.755083 -0.49185,-0.813808 0,-0.0587 -0.0812,-0.199066 -0.18049,-0.311873 -0.23227,-0.263967 -1.80376,-2.674442 -2.64572,-4.058261 -0.3586,-0.589375 -0.70552,-1.111544 -0.77096,-1.160377 -0.0655,-0.04883 -0.2214,-0.278087 -0.3466,-0.509458 -0.1252,-0.231367 -0.81744,-1.321804 -1.53831,-2.423191 -0.72087,-1.101388 -1.31068,-2.063878 -1.31068,-2.13887 0,-0.07499 -0.15283,-0.274663 -0.33964,-0.443717 -0.1868,-0.169053 -0.33963,-0.371766 -0.33963,-0.450473 0,-0.07871 -0.26746,-0.515398 -0.59437,-0.970421 -0.3269,-0.455021 -0.59436,-0.865382 -0.59436,-0.911909 0,-0.09492 -1.43035,-2.300138 -1.714,-2.642525 -0.10039,-0.121222 -0.2732,-0.388685 -0.38396,-0.594366 -0.11075,-0.20568 -0.60105,-0.971818 -1.08954,-1.702526 -0.48848,-0.73071 -0.88815,-1.36626 -0.88815,-1.412337 0,-0.04608 -0.19105,-0.334248 -0.42455,-0.640384 -0.23351,-0.306135 -0.42455,-0.609935 -0.42455,-0.675112 0,-0.06518 -0.0769,-0.2108 -0.17068,-0.323608 -0.26198,-0.314832 -1.69732,-2.473415 -1.69732,-2.552577 0,-0.0843 -1.45549,-2.315797 -1.71401,-2.627858 -0.10042,-0.121222 -0.27168,-0.389759 -0.38057,-0.596755 -0.10889,-0.206995 -0.37513,-0.62364 -0.59164,-0.925877 l -0.39366,-0.549521 8.54497,0.0064 8.54495,0.0064 0.63683,0.917384 c 0.35025,0.50456 0.63682,0.998381 0.63682,1.097378 0,0.099 0.0765,0.179997 0.16982,0.179997 0.0934,0 0.16981,0.0883 0.16981,0.196244 0,0.107935 0.19105,0.446718 0.42456,0.752854 0.2335,0.306134 0.42455,0.638127 0.42455,0.737758 0,0.09963 0.0623,0.18115 0.13854,0.18115 0.0762,0 0.31858,0.324779 0.53862,0.721731 0.22004,0.396952 0.7149,1.180241 1.0997,1.740643 0.38481,0.560402 0.92035,1.399836 1.19009,1.865407 0.26974,0.465572 0.62955,0.995807 0.79957,1.178298 0.17001,0.182493 0.30912,0.401039 0.30912,0.485658 0,0.189389 1.56409,2.562249 1.74065,2.64072 0.0701,0.03114 0.12737,0.125583 0.12737,0.209896 0,0.143568 0.79824,1.410558 3.46976,5.507339 0.60907,0.934004 1.35754,2.107617 1.66328,2.608029 0.30574,0.500413 0.67052,1.086564 0.81063,1.302556 0.1401,0.215994 0.90428,1.389503 1.69818,2.607798 0.79391,1.218298 1.5963,2.473027 1.7831,2.788301 0.36189,0.610766 0.92899,1.478694 1.98125,3.032175 0.35802,0.528548 0.65094,1.032529 0.65094,1.119951 0,0.08747 0.15284,0.297281 0.33963,0.466332 0.1868,0.169051 0.33965,0.375674 0.33965,0.45917 0,0.08351 0.29526,0.587465 0.65614,1.119951 1.01079,1.491444 2.17077,3.303303 2.39169,3.735784 0.17684,0.346171 0.0966,0.547219 -0.71236,1.783098 -0.50141,0.766119 -1.25077,1.927876 -1.66524,2.581674 -0.41447,0.653798 -0.81125,1.214202 -0.88172,1.24533 -0.0705,0.03108 -0.12816,0.13048 -0.12816,0.220767 0,0.09029 -0.40118,0.763396 -0.89155,1.495779 -0.97349,1.454037 -3.57548,5.475592 -4.11809,6.364852 -0.1868,0.306131 -0.89949,1.427796 -1.58374,2.492603 -0.68425,1.064794 -1.65506,2.585549 -2.15734,3.379458 -0.50229,0.793896 -1.07442,1.672708 -1.27142,1.952916 -0.19698,0.280196 -0.67258,1.006172 -1.05688,1.61328 -0.38429,0.607094 -0.96469,1.524118 -1.28979,2.037819 -2.18653,3.45505 -3.39095,5.31822 -3.5906,5.5544 -0.0954,0.11279 -0.17338,0.25316 -0.17338,0.31188 0,0.0587 -0.22058,0.42494 -0.49019,0.81381 -0.71348,1.02909 -2.1307,3.22637 -2.2085,3.42413 -0.0367,0.0934 -0.22788,0.39749 -0.42471,0.67575 -0.19684,0.27827 -0.4343,0.62686 -0.5277,0.77464 -0.0934,0.14778 -0.34931,0.55056 -0.56868,0.89507 l -0.39887,0.62638 h -8.56578 c -6.83829,0 -8.52838,-0.0428 -8.38037,-0.21228 z"
       id="path5739" />
    <path
       style="fill:#ffffff;stroke-width:0.0824136"
       d="m 67.305562,112.88022 c -0.0799,-0.0206 -0.14542,-0.052 -0.14542,-0.07 0,-0.017 0.130821,-0.50214 0.290878,-1.07615 0.432185,-1.55075 0.480672,-1.43717 -0.685603,-1.60605 -4.278879,-0.61967 -9.642099,-2.48148 -14.433644,-5.01059 -0.896121,-0.47299 -1.25326,-0.71075 -1.530435,-1.0189 -0.198847,-0.22107 -0.465168,-0.45465 -0.591821,-0.51905 -0.164092,-0.0834 -0.270496,-0.23804 -0.370229,-0.53793 -0.148624,-0.44695 -0.410994,-0.89818 -0.821651,-1.41323 -0.138292,-0.17339 -0.335872,-0.55299 -0.439047,-0.84339 -0.10319,-0.29041 -0.339897,-0.7579 -0.526033,-1.038879 -0.186128,-0.280984 -0.338437,-0.566918 -0.338437,-0.635403 0,-0.109482 -0.205978,-0.743062 -0.374321,-1.151328 -0.04976,-0.120646 -0.01164,-0.142938 0.244084,-0.142938 0.447247,0 0.879272,-0.254873 1.428187,-0.842591 0.461485,-0.494088 0.513342,-0.525587 0.929272,-0.56433 0.571147,-0.05314 1.030262,-0.374628 1.470848,-1.029732 0.182841,-0.271831 0.388508,-0.49702 0.457067,-0.500405 0.646942,-0.03174 1.213012,-0.452301 1.690666,-1.255563 0.288913,-0.485863 0.341189,-0.531996 0.661932,-0.584108 0.191542,-0.031 0.441732,-0.04842 0.556,-0.03839 0.433651,0.03819 0.712408,0.02799 0.886021,-0.03252 0.172697,-0.06012 0.17969,-0.04122 0.180248,0.492272 6.28e-4,0.571835 0.143345,1.099105 0.470942,1.739973 0.103433,0.202289 0.214298,0.558014 0.246438,0.790517 0.06626,0.479624 0.401199,1.224801 0.784068,1.744607 0.23071,0.313235 0.245765,0.366517 0.136986,0.484708 -0.421603,0.458162 -0.499926,1.35462 -0.161825,1.85217 0.787324,1.15864 3.078466,2.77363 8.313525,5.86013 1.527306,0.90049 1.568627,0.95159 1.663639,2.05701 l 0.05166,0.6005 0.881774,0.0596 c 0.484976,0.0327 1.517533,0.0356 2.294515,0.006 2.046071,-0.0777 2.950282,-0.30065 2.950053,-0.7275 -7.9e-5,-0.17565 -0.03073,-0.18245 -0.857859,-0.19656 -0.960938,-0.0151 -1.842291,-0.11741 -3.13097,-0.35933 -1.1142,-0.20912 -1.20683,-0.25043 -1.399583,-0.62403 -0.298311,-0.5783 -0.866213,-2.55737 -0.733821,-2.55737 0.01536,0 0.754338,0.31469 1.640549,0.69933 3.825606,1.66035 6.54441,2.4368 9.074682,2.59161 l 0.313122,0.0193 -0.299116,0.43572 c -0.164438,0.23967 -0.661437,0.79211 -1.104323,1.22766 -1.936323,1.90437 -4.312438,3.23717 -6.498166,3.64495 -0.635388,0.11855 -2.800657,0.16657 -3.174793,0.0703 z m -8.829651,-0.64744 c -0.09139,-0.021 -0.251296,-0.0562 -0.355298,-0.0779 -0.103996,-0.0219 -0.262937,-0.11231 -0.353186,-0.20114 -0.143672,-0.14124 -0.164092,-0.27425 -0.164092,-1.06825 0,-0.70624 -0.03126,-0.95881 -0.141061,-1.1417 -0.0776,-0.12914 -0.117027,-0.25852 -0.08763,-0.28743 0.08241,-0.0809 0.808527,0.18756 1.166347,0.43139 0.405219,0.27618 0.521565,0.50636 0.588483,1.16417 0.03655,0.35943 0.106131,0.58144 0.219373,0.69997 0.204873,0.21446 0.21549,0.4488 0.0204,0.45003 -0.07994,6.1e-4 -0.276316,0.0151 -0.436296,0.0352 -0.15996,0.0193 -0.365646,0.017 -0.457061,-0.004 z m 2.026153,-0.19581 c -0.165434,-0.0951 -0.276658,-0.37741 -0.408284,-1.0365 -0.09366,-0.46915 -0.188353,-0.66849 -0.545745,-1.14923 -0.136255,-0.18321 -0.135491,-0.18397 0.232306,-0.18397 0.530358,0 1.221475,0.22405 1.48225,0.48053 0.124253,0.12216 0.285894,0.42797 0.361441,0.68358 0.103855,0.35124 0.196492,0.49732 0.384905,0.60678 0.136389,0.0792 0.248157,0.20308 0.248157,0.27508 0,0.272 -1.396704,0.5296 -1.75503,0.32367 z m -4.831658,-0.36147 c -0.686529,-0.24092 -0.757353,-0.43063 -0.543619,-1.45615 0.153355,-0.7358 0.155545,-0.80962 0.03138,-1.05449 -0.183148,-0.36101 -0.05994,-0.44763 0.346643,-0.24362 0.85627,0.42962 1.185308,0.93556 1.100605,1.69237 -0.04081,0.36438 -0.01921,0.53067 0.09888,0.75829 0.08311,0.16034 0.151143,0.32054 0.151143,0.35599 0,0.10418 -0.845268,0.0669 -1.185002,-0.0524 z m 6.849327,-1.10914 c -0.270994,-0.40453 -0.466787,-0.73556 -0.43511,-0.73556 0.0315,0 0.560243,0.12516 1.174597,0.27805 0.614333,0.15296 1.228242,0.30284 1.364231,0.33313 l 0.247291,0.0552 -0.205721,0.16279 c -0.574856,0.45511 -0.952984,0.64208 -1.298592,0.64208 -0.353846,0 -0.354154,-2.5e-4 -0.846696,-0.73557 z m -9.134608,0.12535 c -0.517135,-0.23678 -0.851061,-0.56399 -0.851061,-0.83391 0,-0.10701 0.137138,-0.46015 0.30473,-0.78494 0.226179,-0.43828 0.307033,-0.69988 0.313646,-1.01474 0.0049,-0.23336 0.03122,-0.44618 0.05846,-0.47297 0.0892,-0.0877 0.824727,0.68768 0.988137,1.0417 0.201462,0.43646 0.20151,0.57887 3.16e-4,1.15369 -0.121043,0.34603 -0.142383,0.51859 -0.08312,0.67195 0.193127,0.49954 -0.01441,0.56741 -0.731221,0.23922 z m -1.934944,-1.38257 c -0.530993,-0.38333 -0.827479,-0.75446 -0.827479,-1.03578 0,-0.13046 0.124113,-0.43115 0.275783,-0.66802 0.361946,-0.56524 0.487985,-0.88727 0.456412,-1.16617 -0.01422,-0.12554 0.01633,-0.24269 0.06761,-0.26051 0.153199,-0.0531 0.587584,0.36159 0.772688,0.73766 0.228955,0.46516 0.217767,0.83644 -0.04204,1.39455 -0.132107,0.28382 -0.207567,0.57847 -0.196139,0.7659 0.03716,0.60897 0.02348,0.61521 -0.506822,0.23237 z m -1.987798,-1.92719 c -0.469988,-0.45022 -0.706366,-0.8991 -0.61804,-1.17366 0.03148,-0.0979 0.219826,-0.36083 0.418551,-0.58442 0.414408,-0.4663 0.611881,-0.83365 0.611881,-1.13827 0,-0.28006 0.103791,-0.26809 0.369651,0.0426 0.555531,0.64932 0.607135,1.29147 0.156657,1.94935 -0.213113,0.31124 -0.316278,0.56325 -0.343149,0.83836 -0.02114,0.21633 -0.06807,0.41136 -0.104329,0.43339 -0.03622,0.0219 -0.25729,-0.14332 -0.491227,-0.36741 z m -1.641704,-1.98849 c -0.415388,-0.42447 -0.522085,-0.6236 -0.522085,-0.97441 0,-0.22672 0.08648,-0.35708 0.504917,-0.7614 0.531843,-0.51384 0.741622,-0.82268 0.741622,-1.09192 0,-0.33672 0.161017,-0.23872 0.408683,0.24871 0.176714,0.3478 0.256139,0.62281 0.256139,0.88698 0,0.34268 -0.04363,0.43188 -0.41526,0.84959 -0.292103,0.3283 -0.430893,0.56287 -0.467981,0.79097 -0.02897,0.17829 -0.07903,0.34022 -0.111158,0.35977 -0.03212,0.0195 -0.209833,-0.11933 -0.394894,-0.30829 z m 17.327261,-0.53132 c -0.352521,-0.21155 -0.641534,-0.40301 -0.642206,-0.42547 -6.34e-4,-0.0225 0.163669,-0.14975 0.365103,-0.28269 0.237474,-0.15674 0.409881,-0.3508 0.490122,-0.5517 0.06819,-0.17035 0.163864,-0.30985 0.212693,-0.30985 0.04897,0 0.224659,0.20103 0.390538,0.44673 0.36858,0.54597 0.467051,1.10487 0.238415,1.35335 -0.210964,0.22925 -0.333159,0.20255 -1.054665,-0.23037 z m -1.524942,-0.94047 c -0.191331,-0.16184 -0.228137,-0.26805 -0.264062,-0.76225 -0.03957,-0.54283 -0.02862,-0.58946 0.198921,-0.85399 0.427729,-0.49726 0.47118,-0.56987 0.520783,-0.86995 0.02688,-0.16241 0.09355,-0.31015 0.148299,-0.32808 0.126785,-0.0416 0.830944,0.59322 0.986699,0.88948 0.227639,0.43293 0.158866,0.61822 -0.429284,1.15709 -0.301155,0.2759 -0.60131,0.60385 -0.66697,0.72872 -0.145033,0.2758 -0.208505,0.28081 -0.494349,0.0389 z m 12.246512,-0.22399 c -2.714403,-0.22129 -5.787742,-1.25339 -8.025724,-2.69523 -0.531904,-0.34268 -0.654196,-0.45493 -0.540183,-0.49587 0.170006,-0.0609 1.724783,-0.27756 3.055997,-0.42564 l 0.914124,-0.101717 0.02595,-0.26128 c 0.02228,-0.22479 -0.006,-0.26898 -0.197843,-0.316494 -0.383736,-0.09453 -3.437144,0.02952 -4.25681,0.173003 l -0.772356,0.135378 -0.538704,-0.465162 c -0.296314,-0.255835 -0.790163,-0.739862 -1.097501,-1.075603 -0.636059,-0.694903 -1.70183,-2.075485 -1.645218,-2.131166 0.02074,-0.02041 0.516747,-0.143695 1.102249,-0.274364 1.154824,-0.257463 2.651586,-0.450281 4.222458,-0.543967 0.957289,-0.05709 0.998322,-0.06713 1.024389,-0.247873 0.06186,-0.429844 -0.03169,-0.448522 -2.019617,-0.403334 -1.555045,0.03535 -2.054598,0.08035 -3.322071,0.298659 -0.820474,0.141431 -1.539485,0.239067 -1.597785,0.21706 -0.162517,-0.06126 -0.971758,-1.770565 -1.346212,-2.843145 l -0.334319,-0.957622 0.307492,-0.08471 c 0.681021,-0.187751 2.922183,-0.657753 3.506935,-0.735442 0.635907,-0.08433 2.860321,-0.24417 3.433277,-0.24644 0.307224,-9.63e-4 0.31608,-0.0092 0.290859,-0.266896 l -0.02614,-0.265612 -0.747939,-0.0658 c -1.118056,-0.09814 -3.238564,0.06259 -5.169821,0.392138 -0.923733,0.1575 -1.714519,0.286468 -1.757294,0.286468 -0.11626,0 -0.339297,-1.313421 -0.424985,-2.502547 -0.04161,-0.576901 -0.06191,-1.062424 -0.04517,-1.078872 0.05225,-0.05143 2.281767,-0.590157 3.283683,-0.793469 0.887768,-0.180188 2.597011,-0.342791 4.07203,-0.387469 l 0.623244,-0.01928 v -0.240006 c 0,-0.205261 -0.04206,-0.251018 -0.290857,-0.316248 -0.162324,-0.04253 -1.006774,-0.05654 -1.91137,-0.0314 -1.344195,0.03725 -1.918034,0.09512 -3.365619,0.340866 -0.95985,0.162791 -1.890323,0.328098 -2.067722,0.367294 l -0.32254,0.07127 0.05798,-0.702787 c 0.06558,-0.794886 0.151087,-1.304706 0.388669,-2.317081 l 0.164995,-0.70313 0.823547,-0.183591 c 0.452975,-0.100965 1.63847,-0.282645 2.634448,-0.403616 l 1.810882,-0.219968 v -0.238177 c 0,-0.211288 -0.03747,-0.246343 -0.332408,-0.310649 -0.574973,-0.125544 -3.042261,0.0092 -4.229324,0.231599 -0.320349,0.05995 -0.322975,0.05825 -0.26679,-0.161849 0.09407,-0.368711 0.75304,-1.757782 1.183392,-2.49464 l 0.404145,-0.691936 1.204983,-0.248272 1.204999,-0.248273 v -0.244077 c 0,-0.288205 -0.163475,-0.343205 -1.065076,-0.358596 l -0.566463,-0.0092 0.400259,-0.508704 c 0.395995,-0.503315 2.26443,-2.384638 2.31697,-2.332986 0.01536,0.01512 0.07164,0.430467 0.126222,0.923837 l 0.09892,0.897061 -0.344206,0.523772 c -0.545618,0.830225 -0.566883,0.994547 -0.306723,2.370117 0.122744,0.648108 0.267326,1.238001 0.321669,1.310887 0.05436,0.07279 0.528871,0.514131 1.054511,0.980558 0.525625,0.466426 1.31563,1.195307 1.755561,1.619702 0.748921,0.722509 0.816405,0.768091 1.059562,0.715568 0.142926,-0.03081 0.259681,-0.09378 0.259681,-0.139914 0,-0.04633 -0.245368,-0.484426 -0.545274,-0.973958 -0.299906,-0.489514 -0.522091,-0.926972 -0.493738,-0.972103 0.02843,-0.045 0.17212,-0.08205 0.319408,-0.08205 0.237743,0 0.342244,0.08905 0.930011,0.792089 0.785416,0.939526 0.825835,1.002866 0.993769,1.557175 0.07664,0.252735 0.205872,0.477619 0.315101,0.547991 0.101822,0.0658 0.756123,0.323205 1.453787,0.572289 1.061831,0.379095 1.294463,0.436913 1.427916,0.354968 0.183454,-0.1125 0.759503,0.03725 1.632343,0.424396 0.486318,0.215789 0.508928,0.239123 0.554381,0.572442 0.07069,0.519119 0.111605,0.535757 1.014246,0.413883 0.906824,-0.122348 0.90298,-0.123844 1.241845,0.488376 0.218243,0.394371 0.2242,0.434094 0.125839,0.839148 -0.05686,0.233865 -0.209678,0.735517 -0.339748,1.114818 -0.13005,0.379262 -0.236724,0.747049 -0.236974,0.81729 -2.51e-4,0.07032 0.119661,0.421295 0.266444,0.780119 0.357476,0.873881 0.691749,1.185778 1.966998,1.835377 1.248455,0.636009 1.365425,0.774561 1.315248,1.557876 -0.01959,0.292176 -0.174043,1.321986 -0.345125,2.288457 -0.228232,1.28937 -0.290205,1.81301 -0.232709,1.966822 0.05551,0.148234 0.03247,0.423432 -0.07761,0.939925 -0.206564,0.966792 -0.171738,1.672827 0.09645,1.953567 0.10874,0.11383 0.256626,0.20505 0.328646,0.20265 0.0755,-0.002 0.781537,-0.936521 1.668343,-2.207115 1.172132,-1.679432 1.586761,-2.213999 1.745167,-2.250076 0.114291,-0.02611 0.246098,-0.05825 0.292969,-0.07165 0.04688,-0.01324 0.451703,-0.540108 0.899619,-1.170424 0.703109,-0.989407 0.878613,-1.183339 1.284709,-1.419454 0.429265,-0.249578 0.584328,-0.434114 1.775117,-2.112411 0.717643,-1.011431 1.307196,-1.91337 1.310136,-2.004316 0.0041,-0.102282 -0.239898,-0.402197 -0.638711,-0.787416 -0.836879,-0.808291 -1.304965,-1.131322 -1.639265,-1.131322 -0.289223,0 -0.559564,-0.225888 -0.696801,-0.582197 -0.04554,-0.117961 -0.244256,-0.341468 -0.441847,-0.496756 -0.732533,-0.57573 -3.745654,-2.286905 -4.27264,-2.426482 -0.451759,-0.119675 -2.566776,-0.262924 -2.962423,-0.200718 -0.205528,0.03233 -0.377396,0.125928 -0.485184,0.263927 -0.09164,0.117616 -0.230768,0.296033 -0.308781,0.396488 -0.153871,0.198018 -0.930433,0.429369 -1.53038,0.455876 l -0.346694,0.01505 -0.135622,-0.435683 c -0.153316,-0.492785 -0.254341,-0.582995 -0.654697,-0.58477 l -0.281655,-9.85e-4 0.0509,-0.388225 c 0.02806,-0.213521 0.07512,-0.470965 0.104507,-0.572119 0.04916,-0.169409 0.0265,-0.18378 -0.288743,-0.18378 -0.339286,0 -0.524184,0.114572 -0.71703,0.444078 -0.06627,0.113063 -0.234633,0.152772 -0.794064,0.187373 l -0.70998,0.04349 -0.140809,-0.573895 c -0.156752,-0.638523 -0.192446,-2.163535 -0.05878,-2.509183 0.05246,-0.135754 0.209543,-0.265232 0.436297,-0.359767 0.543815,-0.226662 1.133772,-0.351433 1.280325,-0.270774 0.07781,0.04274 0.316079,0.02799 0.598869,-0.03762 0.787663,-0.182268 1.042388,-0.15145 1.275828,0.154284 0.111605,0.146153 0.286745,0.438709 0.389479,0.650246 0.221453,0.456102 0.684605,0.882215 0.958942,0.882215 0.234496,0 0.296851,-0.133674 0.296851,-0.636535 0,-0.312388 -0.07935,-0.508759 -0.457081,-1.131266 -0.632027,-1.041647 -0.624515,-1.150628 0.134662,-1.95584 l 0.591646,-0.627572 -0.05435,-0.37847 -0.05436,-0.378488 1.3062,-1.23834 c 1.069648,-1.014098 1.360255,-1.246848 1.60476,-1.285287 0.164244,-0.02591 0.365928,-0.09545 0.448244,-0.154473 0.133509,-0.09605 -0.01977,-0.195729 -1.414907,-0.921433 -1.485545,-0.772686 -1.963948,-0.938658 -2.157354,-0.748448 -0.02958,0.02911 0.04476,0.277165 0.16559,0.550962 0.120659,0.273778 0.218626,0.541373 0.217553,0.594579 -9.22e-4,0.05312 -0.185374,0.176029 -0.409787,0.272929 -0.339534,0.146721 -0.400201,0.204824 -0.362299,0.347366 0.08453,0.317682 -0.315965,0.210117 -0.718164,-0.192949 -0.240585,-0.241069 -0.640422,-0.494807 -1.183044,-0.750777 -0.815578,-0.384706 -1.019239,-0.587811 -0.853651,-0.851285 0.03305,-0.05256 0.504318,-0.30749 1.047173,-0.566295 1.052453,-0.501746 1.064537,-0.521259 0.471507,-0.762819 -0.256895,-0.10475 -0.45224,-0.111541 -1.204982,-0.04293 -0.494117,0.04519 -1.085362,0.06714 -1.313902,0.04861 -0.289244,-0.02307 -0.983682,0.08733 -2.28531,0.363456 l -1.869826,0.396726 -0.192638,-0.217361 c -0.10585,-0.119483 -0.162131,-0.245361 -0.124675,-0.279619 0.26191,-0.240446 2.612802,-0.930642 4.056794,-1.191034 0.988314,-0.178297 3.742268,-0.245496 4.875425,-0.119138 2.298066,0.256403 4.806768,1.068987 6.737712,2.18233 0.354444,0.20437 0.661384,0.398549 0.682112,0.431505 0.02074,0.03289 -0.194215,0.02683 -0.477815,-0.01324 -0.2835,-0.04045 -1.168597,-0.08016 -1.966885,-0.08813 l -1.451427,-0.01512 -0.0807,0.223165 c -0.04438,0.122705 -0.05628,0.247178 -0.0265,0.276541 0.02977,0.02931 0.75668,0.140292 1.615191,0.246664 1.731679,0.214486 2.509012,0.352055 3.680068,0.651322 l 0.789493,0.201741 0.737085,0.712299 c 0.711264,0.687341 2.16156,2.383958 2.09434,2.450058 -0.01729,0.017 -0.512926,-0.06106 -1.099711,-0.175271 -0.586785,-0.113997 -1.347365,-0.243982 -1.690163,-0.288529 -0.846256,-0.110032 -3.167453,-0.206503 -3.426847,-0.14237 -0.237243,0.05861 -0.36347,0.370848 -0.206449,0.510764 0.0559,0.04973 0.624959,0.13254 1.26486,0.184536 2.016431,0.162982 2.780156,0.301705 5.088968,0.923116 l 0.933814,0.251335 0.454718,0.910469 c 0.353829,0.708421 1.043306,2.385563 1.043306,2.537804 0,0.01324 -0.612257,-0.09605 -1.360561,-0.244206 -2.149194,-0.42604 -2.977486,-0.529937 -4.639007,-0.581933 l -1.553531,-0.04861 -0.05668,0.222238 c -0.03113,0.122155 -0.02402,0.251621 0.01536,0.28756 0.03996,0.03612 0.540321,0.108715 1.111644,0.161472 1.883066,0.174514 3.259653,0.409099 5.01027,0.854122 0.950221,0.241578 1.744381,0.455629 1.764786,0.47569 0.07878,0.07752 0.374822,2.004034 0.426018,2.772373 0.0392,0.589267 0.0277,0.808008 -0.04248,0.808008 -0.05299,0 -0.425858,-0.07204 -0.828482,-0.160336 -1.113258,-0.243867 -2.57982,-0.411745 -3.597102,-0.411745 h -0.915138 l 0.02611,0.262927 0.02611,0.262925 0.747942,0.108331 c 1.298068,0.187941 3.300301,0.583729 3.94737,0.780499 l 0.623285,0.18945 -0.0225,0.648677 c -0.0215,0.624188 -0.155597,1.553372 -0.356915,2.476848 l -0.09566,0.438766 -0.593505,-0.0605 c -1.046905,-0.107014 -2.169337,-0.17565 -2.27705,-0.139346 -0.113344,0.03819 -0.235537,0.404615 -0.159637,0.479132 0.0256,0.02495 0.629143,0.183399 1.341296,0.352017 0.71217,0.168464 1.313844,0.325 1.337068,0.347839 0.117181,0.115339 -1.25481,3.16523 -1.655454,3.679739 -0.104878,0.134619 -0.148882,0.134053 -0.850095,-0.01512 -0.886597,-0.188319 -2.144346,-0.332523 -3.100327,-0.355461 -0.697111,-0.01701 -0.698916,-0.01512 -0.761406,0.207585 -0.03418,0.123281 -0.03093,0.243623 0.0077,0.267125 0.03862,0.02343 0.61274,0.15069 1.275735,0.282855 1.696601,0.33795 2.711774,0.578641 2.709175,0.642339 -0.01,0.235076 -1.999584,2.357545 -2.940696,3.136454 -0.425827,0.352419 -0.525623,0.399829 -0.747941,0.355459 -1.208766,-0.241277 -1.900979,-0.313636 -3.082025,-0.322125 l -1.329655,-0.0093 v 0.237496 0.237509 l 1.532933,0.27512 c 0.843108,0.15126 1.647141,0.3047 1.786722,0.34083 l 0.253763,0.0658 -0.415493,0.25969 c -0.708505,0.44281 -2.288485,1.20728 -3.13791,1.51828 -2.299659,0.84199 -5.118829,1.22467 -7.557227,1.02588 z m -29.431394,-0.41349 c -0.337746,-0.38807 -0.507637,-0.81067 -0.437063,-1.08721 0.02636,-0.10322 0.328113,-0.4157 0.670582,-0.6943 0.479351,-0.38994 0.645319,-0.58087 0.721068,-0.82954 0.05416,-0.17773 0.125263,-0.32301 0.15812,-0.32301 0.140154,0 0.448765,0.87832 0.451392,1.28467 0.0026,0.41183 -0.01402,0.44312 -0.483585,0.90985 -0.3148,0.31286 -0.506081,0.57826 -0.542307,0.75247 -0.03077,0.14805 -0.0974,0.28272 -0.14805,0.29935 -0.05066,0.017 -0.226219,-0.12405 -0.390149,-0.31228 z m 15.941347,-0.98954 c -0.542532,-0.63281 -0.60828,-1.23157 -0.205856,-1.87479 0.187105,-0.29908 0.271841,-0.539601 0.279814,-0.794322 0.006,-0.207394 0.05571,-0.379756 0.113728,-0.398719 0.159447,-0.05219 1.001667,0.781011 1.107208,1.095531 0.102192,0.30452 0.146185,0.21021 -0.560509,1.19975 -0.123332,0.17262 -0.244891,0.46383 -0.270285,0.6472 -0.02535,0.18321 -0.08819,0.34712 -0.139655,0.36391 -0.05149,0.017 -0.197363,-0.0906 -0.324244,-0.23856 z m -20.711967,-0.27894 c -0.04426,-0.0843 -0.06219,-0.20421 -0.03976,-0.26616 0.03907,-0.10778 2.07201,-2.134997 2.141082,-2.134997 0.09781,0 0.455084,0.639557 0.45578,0.815857 9.42e-4,0.25319 0.333699,0.9704 0.623468,1.34404 l 0.215162,0.27743 -0.980664,0.007 c -0.539368,0.004 -1.285286,0.0301 -1.657603,0.0586 -0.608993,0.0467 -0.685014,0.0367 -0.757467,-0.10154 z m 3.640843,-0.85552 c -0.317099,-0.43051 -0.450295,-0.8838 -0.34201,-1.163932 0.04388,-0.113446 0.296756,-0.352247 0.561967,-0.530619 0.557731,-0.375102 0.896748,-0.713337 0.977082,-0.974885 0.08122,-0.264345 0.176002,-0.227548 0.315937,0.122513 0.355205,0.888764 0.260672,1.296934 -0.438966,1.895393 -0.31442,0.26897 -0.518674,0.51568 -0.561491,0.67821 -0.09746,0.36986 -0.225301,0.36319 -0.512519,-0.0268 z m 15.643019,-0.34263 c -0.691014,-0.75296 -0.758749,-1.19323 -0.30604,-1.989345 0.242667,-0.426777 0.289539,-0.579455 0.24674,-0.80381 -0.03095,-0.162035 -0.01576,-0.298869 0.0343,-0.329898 0.120122,-0.07298 0.601657,0.232809 0.909354,0.577473 0.341998,0.383062 0.334311,0.683443 -0.03018,1.182448 -0.434358,0.594652 -0.648549,1.052212 -0.593503,1.267942 0.06745,0.26424 -0.06213,0.31152 -0.260652,0.0951 z m -1.825834,-1.795563 c -0.391971,-0.399645 -0.608063,-0.781649 -0.608063,-1.074944 0,-0.13424 0.172256,-0.395352 0.500845,-0.759375 0.360337,-0.39923 0.51494,-0.641605 0.551092,-0.863899 0.02761,-0.169978 0.08142,-0.327967 0.119585,-0.351147 0.125557,-0.07639 0.562555,0.621524 0.659401,1.053007 0.109354,0.487113 0.06793,0.622186 -0.376529,1.22885 -0.167663,0.228856 -0.290978,0.494428 -0.290978,0.626721 0,0.260794 -0.07355,0.488153 -0.157789,0.488153 -0.03137,0 -0.210214,-0.156365 -0.397587,-0.347366 z m -14.930936,-0.16336 c -0.450287,-0.930547 -0.372693,-1.16118 0.568907,-1.690871 0.447262,-0.251617 0.730518,-0.474272 0.866791,-0.681383 0.111349,-0.169221 0.234154,-0.276425 0.272937,-0.23829 0.03877,0.03819 0.113178,0.294955 0.16532,0.570683 0.151047,0.798721 0.02902,1.071537 -0.681461,1.523538 -0.416036,0.264684 -0.610807,0.447386 -0.699488,0.656144 -0.06762,0.15901 -0.159462,0.289281 -0.204133,0.289281 -0.04468,0 -0.174656,-0.1931 -0.288864,-0.429102 z m 13.41552,-2.037611 c -0.281569,-0.484881 -0.39971,-1.037583 -0.270357,-1.264904 0.04705,-0.08263 0.340558,-0.315774 0.65236,-0.518158 0.364753,-0.236778 0.618657,-0.47002 0.712044,-0.654064 0.07985,-0.157309 0.191524,-0.286069 0.24819,-0.286069 0.193863,0 0.3546,0.475805 0.3546,1.049701 v 0.559281 l -0.535841,0.471342 c -0.31763,0.279393 -0.573775,0.582179 -0.629,0.743475 -0.05128,0.149748 -0.1352,0.285898 -0.186568,0.302728 -0.05137,0.017 -0.206814,-0.164684 -0.34542,-0.403332 z m -10.353069,0.266215 c -0.258322,-0.106835 -0.43302,-0.342318 -0.536062,-0.722924 -0.05196,-0.191966 -0.164995,-0.510745 -0.25123,-0.708574 -0.136775,-0.313843 -0.140751,-0.365745 -0.03113,-0.407132 0.253681,-0.09566 0.824184,-0.04274 1.033871,0.09623 0.672061,0.444797 0.805458,0.509781 1.046963,0.510045 0.39748,6.44e-4 0.409762,0.135378 0.05032,0.552493 -0.534567,0.620279 -0.943964,0.832362 -1.312716,0.680025 z m -3.856146,-0.345363 c -0.0502,-0.141427 -0.09125,-0.471986 -0.09125,-0.734267 0,-0.40893 0.03256,-0.51033 0.228532,-0.711392 0.125698,-0.128948 0.481295,-0.336099 0.790227,-0.460318 0.32777,-0.131786 0.649855,-0.328877 0.773382,-0.473253 0.29973,-0.350315 0.410088,-0.202384 0.410088,0.54977 0,0.730357 -0.13743,0.917425 -0.872584,1.187821 -0.482833,0.177728 -0.72497,0.368561 -0.90667,0.715134 -0.13172,0.251258 -0.22386,0.230858 -0.331739,-0.07335 z m 17.420382,-0.515453 c -0.07526,-0.155419 -0.264691,-0.421975 -0.420804,-0.592538 -0.221859,-0.242355 -0.296309,-0.408266 -0.340827,-0.759586 -0.03137,-0.247269 -0.16853,-0.678246 -0.304873,-0.957774 -0.224562,-0.460392 -0.239307,-0.539596 -0.1566,-0.841643 0.05017,-0.183212 0.0837,-0.589645 0.07443,-0.902828 -0.01632,-0.547198 0.04173,-0.797343 0.129282,-0.558259 0.02298,0.06259 0.176367,0.497643 0.340927,0.966755 0.346537,0.987758 0.856347,2.088604 1.360139,2.936979 0.194398,0.327454 0.340853,0.606131 0.325348,0.619291 -0.0292,0.02476 -0.826709,0.37206 -0.854396,0.37206 -0.0077,0 -0.07722,-0.127054 -0.152453,-0.282457 z M 48.935357,95.197939 c -0.497357,-0.373573 -0.714175,-0.48713 -0.930004,-0.48713 -0.390259,0 -0.425488,-0.117424 -0.105824,-0.352813 0.494778,-0.364287 0.83905,-0.495562 1.310429,-0.499663 0.380587,-0.0037 0.526586,0.04085 0.872576,0.264135 0.290945,0.187749 0.473693,0.253851 0.609563,0.220593 0.106707,-0.02611 0.266491,-0.02477 0.355029,0.0038 0.156696,0.04896 0.155984,0.05899 -0.02647,0.37828 -0.103113,0.180376 -0.346169,0.471891 -0.540152,0.647767 -0.509082,0.461491 -0.73261,0.436344 -1.545139,-0.17376 z m 7.798576,-0.830072 c -0.07668,-0.188697 -0.160651,-0.518461 -0.18649,-0.733003 -0.06191,-0.513713 0.102998,-0.766732 0.577834,-0.886794 1.005281,-0.254191 1.254284,-0.350921 1.500651,-0.58299 l 0.26551,-0.250127 0.02504,0.511198 c 0.021,0.426969 -0.01345,0.586604 -0.20776,0.968856 -0.216266,0.425092 -0.27034,0.472304 -0.760368,0.663968 -0.314647,0.123076 -0.594122,0.29626 -0.692526,0.429084 -0.228986,0.309174 -0.359451,0.279132 -0.521902,-0.120263 z M 42.86298,94.291877 c -0.120941,-0.59464 0.0052,-1.202604 0.299178,-1.442371 0.07013,-0.05729 0.435174,-0.191964 0.811151,-0.299491 0.424055,-0.121184 0.769208,-0.276124 0.909088,-0.407909 0.124023,-0.116848 0.250946,-0.187561 0.282057,-0.156931 0.03114,0.03063 0.05658,0.283119 0.05658,0.561154 0,0.761362 -0.197351,1.004094 -1.031078,1.268249 -0.487797,0.154473 -0.71096,0.27412 -0.877192,0.469964 -0.279584,0.329365 -0.383923,0.331048 -0.449771,0.0075 z m 3.29931,-0.105504 c -0.07787,-0.334702 -0.04614,-0.532092 0.306279,-1.90649 1.251757,-4.881303 2.998404,-9.23437 5.058758,-12.607581 0.863761,-1.414159 1.062591,-1.601248 1.782513,-1.677069 0.679032,-0.07146 1.114623,0.02477 1.316432,0.290401 0.152891,0.20142 0.483973,1.595006 0.483973,2.037158 0,0.124406 -0.09463,0.681649 -0.210352,1.238489 -0.346977,1.669977 -0.926109,4.78862 -1.081136,5.822001 -0.127616,0.850551 -0.174505,0.999522 -0.385904,1.225956 -0.297528,0.318668 -0.620047,0.849529 -0.695316,1.144467 -0.03334,0.13046 -0.198059,0.317625 -0.400132,0.4544 -0.415834,0.281513 -1.092954,0.980577 -1.164492,1.202264 -0.03324,0.102858 -0.180245,0.194521 -0.409105,0.254721 -0.534544,0.140482 -1.377234,0.72907 -1.62898,1.137543 -0.118664,0.192535 -0.276153,0.351187 -0.349999,0.352625 -0.300046,0.0059 -1.32442,0.595373 -1.632561,0.93966 -0.220136,0.245946 -0.410516,0.37393 -0.611391,0.411009 -0.290514,0.05351 -0.292074,0.05219 -0.378587,-0.319554 z m 4.959698,-0.458317 c -0.502208,-0.289476 -0.794344,-0.406778 -1.013106,-0.406778 -0.169067,0 -0.326852,-0.031 -0.350621,-0.06882 -0.06067,-0.09663 0.426363,-0.535457 0.821376,-0.740169 0.550098,-0.28512 0.807393,-0.295542 1.342802,-0.05444 0.321765,0.145022 0.595043,0.209512 0.834324,0.197337 0.195713,-0.0092 0.379623,0.0059 0.408702,0.03366 0.02908,0.02854 -0.07605,0.28369 -0.233663,0.566883 -0.279573,0.50237 -0.700944,0.884583 -0.970969,0.880763 -0.07324,-9.26e-4 -0.450707,-0.184915 -0.838845,-0.408644 z m 2.160003,-1.638894 c -0.420172,-0.186425 -0.640133,-0.234924 -0.990153,-0.218852 -0.295602,0.01324 -0.461599,-0.01324 -0.483826,-0.07864 -0.04869,-0.14294 0.681431,-0.882785 1.033132,-1.046939 0.227339,-0.106067 0.398746,-0.125161 0.722626,-0.07959 0.598919,0.08376 1.147674,0.08754 1.317246,0.0092 0.100683,-0.04651 0.160097,-0.02762 0.19524,0.0626 0.08024,0.205675 -0.224924,1.036806 -0.489538,1.333198 -0.304765,0.341392 -0.56949,0.345307 -1.304727,0.01929 z m -10.719792,-0.30031 c 6.3e-4,-0.463835 0.150374,-0.89999 0.405039,-1.180313 0.213584,-0.235094 0.280666,-0.25631 0.994072,-0.314429 0.464587,-0.0378 0.844698,-0.113638 0.967897,-0.193044 0.111592,-0.07185 0.241577,-0.130653 0.288893,-0.130653 0.225272,0 -0.01882,0.980502 -0.323979,1.301891 -0.189717,0.199737 -0.308618,0.242524 -0.799775,0.287844 -0.827329,0.07639 -0.943032,0.109853 -1.154487,0.334248 -0.266986,0.283323 -0.378204,0.25226 -0.37766,-0.105505 z m 14.094547,0.07582 c -0.05628,-0.08962 0.09662,-1.134653 0.191562,-1.309112 0.194027,-0.356554 0.400161,-0.447744 0.857629,-0.379414 0.240661,0.03611 0.73673,0.07279 1.102389,0.08205 0.58527,0.01512 0.667724,0.03535 0.689066,0.173949 0.03214,0.20834 -0.371445,0.789611 -0.727621,1.048037 -0.245682,0.178297 -0.371129,0.206507 -0.91739,0.206507 -0.427743,0 -0.685061,0.03895 -0.794104,0.120071 -0.181802,0.135376 -0.338727,0.157875 -0.401531,0.05805 z M 53.408407,90.13667 c -0.06802,-0.108332 0.234548,-0.67159 0.55125,-1.026351 0.400837,-0.448992 0.671433,-0.554704 1.266562,-0.49475 0.426267,0.04293 0.547128,0.02477 0.756612,-0.113843 0.433535,-0.286767 0.48724,-0.237135 0.432921,0.399987 -0.05127,0.601936 -0.180977,0.930018 -0.468915,1.186288 -0.172656,0.153528 -0.198206,0.154096 -0.909028,0.02023 -0.891503,-0.168088 -0.986496,-0.169224 -1.287477,-0.01512 -0.28157,0.144452 -0.278533,0.143886 -0.341925,0.04311 z M 42.561732,89.53572 c 0,-0.406887 0.253764,-1.025633 0.506359,-1.234673 0.235124,-0.194575 0.31536,-0.210457 1.063086,-0.210457 0.582469,0 0.853904,-0.03346 0.970084,-0.120071 0.22076,-0.164116 0.36907,-0.154852 0.36907,0.02363 0,0.307341 -0.265478,0.898234 -0.504924,1.123875 -0.236471,0.222803 -0.284867,0.233922 -1.028296,0.236512 -0.692519,0.0038 -0.80251,0.02324 -0.979237,0.186615 -0.25524,0.235757 -0.396142,0.233771 -0.396142,-0.0059 z m 16.246594,-0.02118 c -0.143881,-0.06673 -0.442599,-0.107194 -0.706377,-0.09548 -0.444137,0.01967 -0.456221,0.01324 -0.427628,-0.183593 0.04153,-0.287259 0.324199,-0.818123 0.576983,-1.083411 0.211977,-0.222465 0.603388,-0.300327 0.815377,-0.162227 0.05068,0.03289 0.118575,0.335891 0.150835,0.673049 0.03223,0.337116 0.07896,0.695714 0.103856,0.796852 0.05365,0.218304 -0.120685,0.236984 -0.513021,0.05503 z m 43.303924,-1.430194 c -0.24155,-0.282304 -0.26141,-0.363984 -0.11124,-0.457237 0.26156,-0.162413 2.50625,-1.171105 2.60614,-1.171105 0.0617,0 0.13525,0.101145 0.16328,0.224771 0.0281,0.123473 0.0687,0.289757 0.0907,0.369187 0.0323,0.117232 -0.19075,0.252282 -1.18021,0.715153 -0.67107,0.313882 -1.25011,0.5707 -1.28676,0.5707 -0.0367,0 -0.16348,-0.113063 -0.2818,-0.251469 z M 54.445432,87.893352 c 0,-0.286145 0.501713,-1.189371 0.769066,-1.384531 0.145937,-0.10663 0.426188,-0.187182 0.773192,-0.222503 0.385278,-0.03932 0.599169,-0.106067 0.732134,-0.228968 0.103331,-0.09548 0.250883,-0.173383 0.327925,-0.173383 0.120825,0 0.14008,0.09947 0.14008,0.724552 0,0.599005 -0.02858,0.760305 -0.164976,0.93083 -0.154985,0.193781 -0.219403,0.208094 -1.064393,0.23655 -0.67567,0.0227 -0.95435,0.0658 -1.120196,0.172436 -0.298396,0.192344 -0.392825,0.179054 -0.392825,-0.05482 z m -11.50347,-0.68142 c 0.11438,-0.504261 0.450162,-1.056868 0.73333,-1.20684 0.26208,-0.138781 0.337343,-0.141808 1.004014,-0.03971 0.585636,0.08963 0.775173,0.09075 1.01139,0.0075 0.159884,-0.05692 0.31199,-0.08245 0.338019,-0.05692 0.09407,0.09246 -0.260018,0.83268 -0.522479,1.092261 -0.300268,0.296942 -0.508475,0.325245 -1.314654,0.178675 -0.425345,-0.07733 -0.514646,-0.06825 -0.807301,0.08167 -0.434369,0.222673 -0.503558,0.213899 -0.442319,-0.05615 z m 57.008326,-0.234623 c -0.117577,-0.252678 -0.213854,-0.489057 -0.213854,-0.525343 0,-0.03629 0.09878,-0.142181 0.219462,-0.235697 l 0.219494,-0.169791 -1.343966,-2.839739 c -0.739203,-1.561823 -1.376086,-2.890504 -1.415317,-2.952577 -0.05709,-0.0902 -0.311007,-0.0059 -1.264726,0.423525 -0.656338,0.295011 -1.241383,0.548069 -1.300067,0.562382 -0.0676,0.01701 -0.225219,-0.280378 -0.430088,-0.80988 -0.353276,-0.913055 -0.924884,-2.110821 -1.32411,-2.774527 -0.304681,-0.50649 -0.236467,-0.557351 0.401374,-0.299267 0.287426,0.116286 0.636962,0.18775 0.923978,0.189073 0.36716,0.0019 0.520343,0.04574 0.747943,0.215152 0.441402,0.328778 0.916337,0.518608 1.302334,0.520593 0.281797,0.0019 0.37815,0.04215 0.487303,0.205997 0.201666,0.302706 0.870211,0.756881 1.462563,0.993602 0.287177,0.114777 0.651089,0.319987 0.808666,0.456064 0.333582,0.288054 1.002793,0.610842 1.419283,0.684598 0.15983,0.02837 0.38435,0.13708 0.49861,0.241544 0.28209,0.258029 0.84791,0.491631 1.48607,0.613452 l 0.53035,0.101144 0.44839,0.938506 c 0.2466,0.51619 0.43801,0.947278 0.42531,0.957962 -0.0114,0.01138 -0.19133,0.101732 -0.39702,0.202178 -0.20567,0.100569 -0.45812,0.258578 -0.56094,0.351221 -0.20589,0.185673 -0.25511,0.609785 -0.0784,0.676452 0.0596,0.02249 0.47366,-0.125736 0.92,-0.329481 0.44633,-0.203746 0.89547,-0.370435 0.99811,-0.370435 0.14639,0 0.23835,0.106451 0.42598,0.492501 0.23678,0.487223 0.23762,0.494147 0.0776,0.644891 -0.22041,0.207643 -4.83173,2.295284 -5.06999,2.295284 -0.15041,0 -0.23521,-0.09623 -0.404272,-0.459376 z M 54.878845,85.494268 c 0.02209,-0.304146 0.118524,-0.727083 0.214228,-0.939868 0.158693,-0.35283 0.227517,-0.410838 0.782412,-0.659526 0.437013,-0.195863 0.637589,-0.335685 0.711977,-0.496244 0.06229,-0.134621 0.156829,-0.213106 0.237275,-0.197318 0.184147,0.03629 0.454414,0.751171 0.46554,1.231665 0.01202,0.519499 -0.145207,0.669379 -0.925363,0.88201 -0.729395,0.198775 -1.05491,0.354741 -1.192481,0.571401 -0.05619,0.0885 -0.154275,0.160903 -0.217995,0.160903 -0.09158,0 -0.107423,-0.115723 -0.07562,-0.553004 z m -9.941966,-0.363911 c -0.418699,-0.143318 -0.533018,-0.153718 -0.768214,-0.07013 -0.406476,0.144454 -0.463243,0.05918 -0.278518,-0.418987 0.180516,-0.46724 0.5241,-0.864766 0.807977,-0.934857 0.116324,-0.02874 0.47617,0.06825 0.943439,0.254361 0.612795,0.244001 0.816911,0.290531 1.081535,0.246572 0.456667,-0.076 0.423752,0.05369 -0.159136,0.627083 -0.431663,0.424528 -0.521244,0.476618 -0.810251,0.470868 -0.178709,-0.0038 -0.546288,-0.08224 -0.816832,-0.174894 z m 1.281377,-1.821065 c -0.352588,-0.217813 -0.5473,-0.282779 -0.851803,-0.284197 -0.217106,-9.45e-4 -0.394738,-0.03233 -0.394738,-0.06958 0,-0.16374 0.534692,-0.839923 0.784169,-0.991564 0.384997,-0.234016 0.53576,-0.211628 1.074324,0.15939 0.665896,0.45875 0.915787,0.57297 1.253734,0.57297 0.354812,0 0.367519,0.0658 0.06644,0.344151 -0.685431,0.633701 -1.220906,0.708215 -1.932134,0.268827 z m 9.058201,-0.03574 c 0,-0.166762 0.420823,-2.25499 0.485722,-2.4102 0.05697,-0.136324 0.112846,-0.09283 0.416112,0.323601 0.584677,0.803016 0.583925,1.152952 -0.0029,1.588293 -0.542811,0.402371 -0.898463,0.599613 -0.898463,0.498306 z m -7.252573,-1.380313 c -0.507166,-0.451357 -0.733475,-0.586356 -0.982919,-0.586356 -0.121363,0 -0.264814,-0.05238 -0.318803,-0.116477 -0.07995,-0.09493 -0.01652,-0.176972 0.343014,-0.443814 0.929778,-0.690252 1.12832,-0.675467 1.957818,0.145965 0.648595,0.642171 0.65358,0.650339 0.536566,0.878608 -0.176463,0.344209 -0.339452,0.434719 -0.782858,0.434719 -0.348728,0 -0.447657,-0.04104 -0.752818,-0.312672 z m 58.836676,-0.56588 c -0.13716,-0.14899 -0.49975,-0.923248 -0.45362,-0.968606 0.0134,-0.01324 0.30775,0.06182 0.65162,0.16922 0.34389,0.107398 0.85646,0.221009 1.13911,0.252473 0.28264,0.0314 0.51388,0.08641 0.51388,0.121951 0,0.03574 -0.23037,0.178107 -0.51187,0.316358 -0.59261,0.291249 -1.13089,0.334869 -1.33912,0.108523 z m -2.44306,-0.05786 c -0.37809,-0.161659 -0.44279,-0.343435 -0.44313,-1.244466 -2.5e-4,-0.664574 -0.0296,-0.849415 -0.17059,-1.077078 -0.0938,-0.151069 -0.15157,-0.293462 -0.12832,-0.316189 0.0231,-0.0227 0.24014,0.122527 0.48232,0.322976 0.24216,0.200361 0.62727,0.487319 0.85581,0.637708 0.51014,0.335644 0.53732,0.373366 0.53892,0.747862 9.3e-4,0.199645 0.0709,0.381552 0.20901,0.543039 0.11433,0.133488 0.20775,0.279206 0.20775,0.323677 0,0.201307 -1.12158,0.246456 -1.55166,0.06239 z M 57.005754,80.773637 c -0.616708,-0.603564 -0.965165,-1.191017 -1.234982,-2.082084 -0.237945,-0.785827 -0.434517,-1.167854 -0.710958,-1.381713 -0.326702,-0.252755 -1.255539,-0.237914 -2.076558,0.0331 -0.340393,0.112295 -0.708185,0.20433 -0.817318,0.20433 -0.155427,0 -2.579315,-0.992749 -2.691696,-1.102432 -0.111452,-0.108715 0.495718,-0.892128 1.303424,-1.681661 1.490258,-1.45674 3.217114,-2.475621 5.315052,-3.136038 1.568513,-0.49373 2.614414,-0.640336 4.640703,-0.650415 0.967408,-0.0059 1.787254,0.01928 1.821908,0.05312 0.03476,0.03404 -0.05628,0.217928 -0.20182,0.408665 -1.560768,2.043661 -2.849037,4.674946 -4.581452,9.35757 -0.103944,0.280945 -0.196275,0.510822 -0.205186,0.510822 -0.0086,0 -0.261422,-0.239992 -0.561117,-0.533282 z m -1.037819,-4.376452 c 0.305348,-0.08338 0.970578,-0.590026 0.970578,-0.739184 0,-0.0397 -0.246654,-0.07223 -0.548124,-0.07223 -0.367457,0 -0.627225,-0.04595 -0.788131,-0.139349 -0.245678,-0.142561 -0.492013,-0.546992 -0.492013,-0.80744 0,-0.285199 0.346949,-0.846693 0.629179,-1.01824 0.156735,-0.09527 0.284961,-0.206979 0.284961,-0.248272 0,-0.164117 -0.800495,-0.07394 -1.235808,0.139349 -0.540002,0.264665 -0.851101,0.693918 -0.905356,1.249268 -0.05035,0.515262 0.08259,0.895113 0.428712,1.225045 0.460643,0.439087 1.033225,0.581271 1.656002,0.411182 z m -6.164358,4.177512 c -0.121887,-0.213312 -0.279956,-0.355914 -0.468964,-0.423129 -0.379619,-0.135187 -0.416747,-0.274707 -0.126938,-0.477677 0.614558,-0.43037 1.245691,-0.590912 1.527217,-0.388451 0.132684,0.09548 0.111976,0.159579 -0.265148,0.821279 -0.225001,0.39475 -0.425567,0.73391 -0.4457,0.753707 -0.02014,0.01987 -0.119329,-0.108715 -0.220467,-0.285748 z m 52.530753,0.102282 c -0.85636,-0.248273 -1.00018,-0.576392 -0.68547,-1.563793 0.17673,-0.554497 0.20823,-0.963919 0.0884,-1.149965 -0.0407,-0.06315 -0.0553,-0.16355 -0.0321,-0.222751 0.0563,-0.144072 0.41623,0.038 0.86714,0.438577 0.49829,0.442736 0.57353,0.641358 0.5563,1.468519 -0.008,0.395618 0.0154,0.82043 0.0513,0.944045 0.0615,0.208891 0.0494,0.224299 -0.17193,0.218174 -0.13101,-0.0037 -0.43414,-0.06332 -0.67358,-0.132732 z m 5.25036,-0.713944 c -1.2519,-0.318345 -2.52271,-1.033988 -3.3902,-1.909248 -0.37065,-0.37397 -0.42865,-0.403712 -0.71344,-0.366161 -0.26586,0.03517 -0.37216,-0.0059 -0.74685,-0.284292 -0.42412,-0.315716 -0.89218,-0.510026 -1.2286,-0.510026 -0.0903,0 -0.23565,-0.07735 -0.32268,-0.171869 -0.23727,-0.257877 -0.76381,-0.534022 -1.31474,-0.689516 -0.316868,-0.08943 -0.559222,-0.217907 -0.682109,-0.361529 -0.241218,-0.281945 -1.066629,-0.649601 -1.59703,-0.711391 -0.329742,-0.03839 -0.465385,-0.106835 -0.716419,-0.361187 -0.356418,-0.361168 -0.965456,-0.612164 -1.857872,-0.765692 -0.334461,-0.05747 -0.638652,-0.13708 -0.675962,-0.176785 -0.125813,-0.133485 -1.249638,-2.581992 -1.21243,-2.641192 0.05089,-0.08112 4.111467,-1.918758 4.148788,-1.877618 0.01538,0.01929 0.559552,1.15424 1.206621,2.524366 0.647057,1.370104 1.211088,2.525136 1.253368,2.566717 0.134853,0.132541 1.275675,-0.418686 1.642575,-0.793734 l 0.33364,-0.341033 0.0459,-0.980765 c 0.074,-1.578389 0.49943,-2.843823 1.35134,-4.017991 0.20674,-0.284932 0.38334,-0.518061 0.39249,-0.518061 0.01,0 0.0154,0.303405 0.0154,0.674276 0,0.591667 0.0323,0.739371 0.26411,1.205515 0.14523,0.292195 0.33591,0.641585 0.42366,0.776431 0.15138,0.232392 0.15368,0.292196 0.0471,1.144258 -0.1458,1.164864 -0.10047,1.5166 0.21942,1.702458 0.88377,0.513451 1.43078,1.741676 1.17163,2.630873 l -0.0949,0.3253 0.5015,0.460016 c 0.91452,0.838846 2.04847,1.297179 3.20931,1.297179 1.19465,0 2.12678,-0.404617 2.93454,-1.273829 1.86544,-2.007397 1.43891,-5.564293 -0.90384,-7.537167 -0.27543,-0.231937 -0.41786,-0.415547 -0.41786,-0.538613 0,-0.210421 -0.4449,-1.129758 -0.6132,-1.267138 -0.0802,-0.0658 -0.0991,-0.258803 -0.0701,-0.723169 0.0217,-0.348482 0.0499,-0.645388 0.0624,-0.659775 0.05,-0.0571 1.19394,0.439824 1.73689,0.754688 0.69454,0.402748 1.88399,1.528343 2.37224,2.244932 0.48631,0.713699 0.9495,1.711801 1.18031,2.543349 0.16522,0.595259 0.19246,0.881972 0.18941,2.002424 -0.004,1.418263 -0.0877,1.873515 -0.53818,2.91658 -1.2754,2.952634 -4.46509,4.507523 -7.60754,3.708419 z m -7.30809,-0.204517 c -0.433973,-0.192345 -0.768376,-0.50649 -0.840736,-0.790026 -0.0344,-0.134244 -0.002,-0.434984 0.07968,-0.735517 0.169624,-0.626234 0.174422,-0.96354 0.01539,-1.200299 -0.06668,-0.100018 -0.09467,-0.222956 -0.06229,-0.273231 0.09168,-0.142372 0.796736,0.113447 1.157616,0.420408 0.26876,0.228477 0.30889,0.309116 0.30923,0.621409 2.6e-4,0.197374 -0.0721,0.607703 -0.16058,0.911846 -0.12431,0.426875 -0.1414,0.604299 -0.0748,0.778114 0.0863,0.224545 0.068,0.431298 -0.0371,0.42035 -0.0304,-0.0037 -0.20499,-0.07203 -0.38781,-0.152959 z m -2.036039,-1.145449 c -0.392347,-0.206164 -0.824023,-0.660662 -0.903254,-0.950963 -0.03939,-0.144455 -0.01729,-0.448883 0.05528,-0.77668 0.109316,-0.490666 0.107206,-0.565596 -0.02209,-0.833626 -0.195777,-0.405526 -0.124099,-0.472157 0.369603,-0.344057 0.560542,0.145396 0.988029,0.418986 1.053093,0.673913 0.03088,0.121184 -0.0277,0.537915 -0.138125,0.982979 -0.159627,0.643302 -0.175772,0.816497 -0.09548,1.035047 0.160217,0.435911 0.135812,0.452339 -0.319016,0.213387 z m -2.285289,-1.201492 c -0.710773,-0.367863 -0.959926,-0.808765 -0.896282,-1.585971 0.03288,-0.401575 0.01,-0.600935 -0.09087,-0.792825 -0.223338,-0.424793 -0.184798,-0.525795 0.176736,-0.462551 0.462548,0.08093 1.059711,0.348539 1.270846,0.569567 0.164635,0.172246 0.177883,0.240049 0.116209,0.585939 -0.08797,0.491858 -0.08819,1.395272 -6.29e-4,1.637532 0.05709,0.157688 0.03858,0.183403 -0.130058,0.180567 -0.108139,-0.0019 -0.308867,-0.06126 -0.445971,-0.132164 z m 12.423878,-0.382724 c -0.2057,-0.05616 -0.44326,-0.14067 -0.52792,-0.187939 -0.14484,-0.08094 -0.14157,-0.09586 0.0593,-0.25111 0.13007,-0.100773 0.40826,-0.186803 0.71319,-0.220706 0.35155,-0.03913 0.57158,-0.115161 0.74196,-0.256063 0.13332,-0.110224 0.28289,-0.200457 0.33256,-0.200457 0.12738,0 0.19132,0.310404 0.16097,0.781861 l -0.026,0.403237 -0.54013,0.01701 c -0.29712,0.0092 -0.70848,-0.0293 -0.91416,-0.08546 z M 94.085435,76.810442 c -0.241084,-0.06484 -0.815175,-0.356687 -0.999164,-0.507833 -0.378983,-0.31131 -0.496681,-0.57276 -0.496681,-1.10334 0,-0.403995 -0.03899,-0.576487 -0.166166,-0.735574 -0.09127,-0.114189 -0.166166,-0.257311 -0.166166,-0.317834 0,-0.306225 1.351632,-0.193102 1.71613,0.143507 0.197316,0.18227 0.200643,0.206584 0.145409,1.065187 -0.04841,0.751927 -0.03628,0.9092 0.08488,1.09088 0.19245,0.288755 0.144852,0.435684 -0.118128,0.364896 z m 16.620585,-0.185479 c 0,-0.332319 0.24717,-1.028261 0.43909,-1.236244 0.15965,-0.173 1.21249,-0.657937 1.28144,-0.590117 0.0134,0.01324 -0.0877,0.246344 -0.22536,0.517382 -0.24051,0.473308 -0.91484,1.195911 -1.31038,1.404083 -0.16654,0.08773 -0.18482,0.07827 -0.18482,-0.09512 z m -3.6011,-0.439958 c -0.0982,-0.09664 -0.059,-0.80294 0.0678,-1.222743 0.14079,-0.466897 0.36156,-0.702351 0.83366,-0.88978 0.1823,-0.07223 0.47091,-0.285578 0.64159,-0.473858 0.35358,-0.390057 0.36845,-0.382343 0.64498,0.335021 0.34197,0.887115 0.15483,1.294078 -0.70348,1.530403 -0.64113,0.176596 -1.09604,0.407152 -1.20763,0.612242 -0.0916,0.16846 -0.18059,0.203347 -0.27687,0.108715 z M 91.672911,75.619673 c -9.79e-4,-0.04122 -0.318096,-0.424319 -0.703774,-0.851343 l -0.701255,-0.77645 0.225951,-0.06239 c 0.356835,-0.0985 0.82934,0.01138 1.008244,0.235436 0.159638,0.199623 0.337482,1.368291 0.22507,1.478879 -0.02839,0.02799 -0.05279,0.01701 -0.05439,-0.02402 z m 18.445769,-0.656275 c -0.12315,-0.311914 -0.0547,-1.233008 0.11625,-1.557891 0.0817,-0.155609 0.31861,-0.361056 0.59613,-0.517212 0.32491,-0.182837 0.49531,-0.341224 0.57895,-0.538069 0.17039,-0.40097 0.33865,-0.348481 0.61247,0.190983 0.31457,0.61971 0.37571,0.895738 0.25959,1.171504 -0.0943,0.223825 -0.22287,0.304239 -1.03193,0.645309 -0.22613,0.09547 -0.55226,0.323656 -0.72468,0.50736 l -0.31354,0.334017 z m -3.74343,-0.866242 c -0.14697,-0.270055 -0.19341,-1.219714 -0.0767,-1.567629 0.0707,-0.210611 0.23616,-0.398757 0.55355,-0.629354 0.31468,-0.228606 0.46753,-0.401687 0.50125,-0.567485 0.0848,-0.417495 0.23094,-0.446838 0.50663,-0.101719 0.39411,0.493159 0.53061,0.816686 0.50287,1.191694 -0.027,0.364797 -0.0256,0.363399 -1.15427,1.038073 -0.19223,0.114777 -0.41173,0.338403 -0.50152,0.5108 -0.0877,0.168655 -0.17616,0.30651 -0.19657,0.30651 -0.0203,0 -0.0812,-0.0813 -0.13524,-0.180754 z m 2.90155,-1.188216 c -0.0526,-0.123473 -0.11151,-0.530314 -0.13118,-0.90381 l -0.0359,-0.679042 0.54887,-0.516434 c 0.3185,-0.299684 0.54891,-0.585071 0.54891,-0.679931 0,-0.08981 0.0532,-0.207054 0.11855,-0.260317 0.0966,-0.07903 0.18075,-0.01946 0.45529,0.322031 0.41128,0.511731 0.57311,0.976093 0.44017,1.263072 -0.0509,0.110032 -0.38941,0.390645 -0.75203,0.623546 -0.44561,0.286164 -0.71785,0.525851 -0.83994,0.739544 -0.0994,0.173758 -0.19792,0.316112 -0.21898,0.316112 -0.021,0 -0.0811,-0.101145 -0.1339,-0.224771 z m -3.79299,-1.02633 c -0.18864,-0.223655 -0.42522,-0.844688 -0.42697,-1.121342 -0.004,-0.381361 0.17042,-0.606057 0.73518,-0.955882 0.60535,-0.374953 0.84195,-0.589589 0.84195,-0.763706 0,-0.287111 0.24407,-0.2433 0.40829,0.07316 0.43666,0.841834 0.31475,1.249478 -0.54434,1.819593 -0.44091,0.292628 -0.62332,0.466275 -0.65922,0.627593 -0.10448,0.469733 -0.17519,0.533491 -0.35489,0.320481 z m 2.99401,-1.059779 c -0.19681,-0.233222 -0.42752,-0.850002 -0.42925,-1.147622 -0.004,-0.434264 0.0962,-0.576411 0.66403,-0.955637 0.59927,-0.400231 0.82998,-0.633189 0.82998,-0.838012 0,-0.256462 0.27603,-0.131028 0.44068,0.200248 0.36652,0.737443 0.2597,1.22966 -0.35044,1.614708 -0.52319,0.3302 -0.76264,0.593789 -0.82891,0.91253 -0.0614,0.296166 -0.18708,0.378469 -0.32609,0.213785 z M 91.881148,69.941972 91.64078,69.447357 91.913119,69.19706 c 0.369192,-0.33937 0.444194,-0.574634 0.41257,-1.294097 l -0.02688,-0.612997 1.121874,-0.545817 c 0.61705,-0.300232 1.201584,-0.548468 1.298995,-0.551681 0.235541,-0.0075 0.653951,0.513315 0.506338,0.630542 -0.05608,0.04424 -0.412492,0.219798 -0.792351,0.3897 -0.667874,0.29868 -0.932472,0.546614 -0.928615,0.870098 0.0041,0.351319 0.133897,0.321559 1.668452,-0.383251 0.898612,-0.412713 1.612015,-0.692693 1.729253,-0.678663 0.15483,0.01928 0.245365,0.128571 0.404413,0.491838 0.112768,0.257349 0.186141,0.516172 0.163089,0.575144 -0.05458,0.139726 -4.903989,2.348715 -5.156062,2.348715 -0.15368,0 -0.241146,-0.09984 -0.432975,-0.494619 z m -21.615292,-0.01929 c -0.263368,-0.148236 -0.945034,-0.96683 -0.945034,-1.134918 0,-0.08035 0.533845,-0.854916 1.186348,-1.721214 2.856634,-3.792728 3.132336,-4.211546 3.13416,-4.761108 9.6e-4,-0.273211 -0.889324,-3.559716 -0.992847,-3.665276 -0.133699,-0.136322 -0.705273,-0.215715 -0.810869,-0.112488 -0.05551,0.05407 -0.322459,0.705416 -0.593166,1.447097 l -0.492216,1.348515 h -1.775271 c -1.726762,0 -1.794976,-0.0075 -2.496773,-0.232619 -0.728709,-0.234923 -1.397619,-0.674578 -1.397619,-0.918636 0,-0.06447 0.615889,-0.934933 1.368687,-1.934755 0.752781,-0.999805 1.369823,-1.862852 1.371187,-1.917891 0.0019,-0.132351 -0.432376,-0.349466 -0.701681,-0.349466 -0.163669,0 -0.564695,0.330447 -1.706822,1.406182 -0.82113,0.773388 -1.64539,1.506861 -1.831687,1.62993 -0.487183,0.321803 -1.033879,0.403882 -2.51945,0.3783 l -1.312964,-0.02251 2.746651,-2.472934 c 1.787175,-1.60908 2.73098,-2.512983 2.701876,-2.587612 -0.06147,-0.157876 -0.529061,-0.369581 -0.690193,-0.312559 -0.07243,0.02572 -1.814803,1.176307 -3.871598,2.556925 -2.056779,1.380598 -3.865917,2.573199 -4.020297,2.650229 -0.24199,0.120826 -0.579946,0.141428 -2.451537,0.150313 -2.397385,0.01138 -2.97624,-0.05218 -4.096803,-0.449332 -0.716286,-0.25387 -2.648509,-1.427337 -2.741144,-1.66474 -0.108741,-0.278734 0.26516,-0.553098 1.555513,-1.141496 2.814341,-1.283283 6.31957,-3.024841 12.419104,-6.170373 4.49035,-2.315701 5.016778,-2.556656 5.602721,-2.564466 0.48893,-0.0059 0.506682,0.0017 1.564227,0.709766 l 1.069632,0.716364 -0.03554,0.729674 c -0.04379,0.902129 0.0077,1.110659 0.304517,1.262238 0.262639,0.133485 1.459188,0.442168 2.71323,0.699744 1.046501,0.214959 1.155307,0.261092 1.339702,0.56809 0.181919,0.302839 0.227195,0.305527 0.791968,0.0471 0.636522,-0.291438 0.867348,-0.264552 1.837104,0.214089 l 0.849386,0.419196 0.842549,-0.419196 c 0.466841,-0.232296 0.955789,-0.419215 1.096522,-0.419215 0.139656,0 0.485973,0.09888 0.769474,0.219855 l 0.515481,0.219856 0.158096,-0.191965 c 0.08701,-0.105684 0.187106,-0.243188 0.222777,-0.305659 0.03861,-0.06806 0.610283,-0.229083 1.422785,-0.401065 0.746996,-0.158063 1.653072,-0.379091 2.013527,-0.491082 0.806645,-0.250615 0.851041,-0.330008 0.783055,-1.400677 l -0.04802,-0.75707 1.088511,-0.71313 c 1.068403,-0.699971 1.097563,-0.713035 1.577084,-0.706609 0.592105,0.0075 0.939539,0.169033 5.972773,2.770843 4.213088,2.177809 10.320238,5.209702 12.008368,5.961519 0.68561,0.305315 1.31201,0.611636 1.39199,0.680666 0.0798,0.06903 0.14543,0.226096 0.14543,0.348994 0,0.191777 -0.11472,0.29881 -0.81024,0.755444 -1.02027,0.669812 -1.67184,0.989972 -2.44505,1.201432 -0.89038,0.243508 -2.73165,0.354682 -4.482271,0.270621 l -1.463262,-0.07035 -1.40378,-0.933363 c -0.772077,-0.513356 -2.488265,-1.666535 -3.813756,-2.562651 -1.325499,-0.896116 -2.525163,-1.67737 -2.665956,-1.736114 -0.22496,-0.09378 -0.287835,-0.08773 -0.519373,0.05068 -0.144842,0.08678 -0.26343,0.191759 -0.26343,0.233696 0,0.09682 0.535287,0.596848 3.157907,2.950252 1.165502,1.045881 2.175197,1.954305 2.243777,2.018722 0.108331,0.10172 -0.08167,0.113638 -1.454305,0.09114 -2.091137,-0.03404 -1.999874,0.0092 -4.065557,-1.936496 -1.137542,-1.07148 -1.627125,-1.481168 -1.770045,-1.481168 -0.259643,0 -0.687968,0.221049 -0.687968,0.355007 0,0.05805 0.602519,0.910786 1.338934,1.894899 0.73644,0.984073 1.354866,1.82999 1.374301,1.879793 0.05898,0.15126 -0.264582,0.48229 -0.698277,0.714435 -0.766617,0.410347 -1.621902,0.548976 -3.386167,0.548845 l -1.578961,-1.9e-4 -0.498613,-1.395612 c -0.274222,-0.767586 -0.537301,-1.427188 -0.584559,-1.465818 -0.09664,-0.07903 -0.680993,0.02911 -0.802245,0.148425 -0.04322,0.04234 -0.302729,0.883524 -0.576894,1.869132 l -0.498458,1.792004 0.177884,0.467919 c 0.175003,0.459848 0.777579,1.312608 3.100137,4.386723 0.593684,0.785829 1.095313,1.488446 1.114715,1.561393 0.03803,0.143127 -0.705868,1.077325 -0.967913,1.215215 -0.120058,0.06315 -0.431453,-0.0075 -1.328596,-0.299665 l -1.171655,-0.38229 -0.844238,-1.462202 c -1.104708,-1.913373 -1.024869,-1.823108 -1.460781,-1.65158 -0.191523,0.07545 -0.368619,0.201005 -0.39388,0.279318 -0.02535,0.07828 0.08144,0.66658 0.237339,1.307314 0.278985,1.147207 0.28058,1.164204 0.105274,1.117237 -0.366718,-0.09814 -2.868159,-0.142183 -3.668465,-0.06427 -0.45708,0.04424 -0.839033,0.07335 -0.848829,0.06467 -0.0095,-0.0092 0.09259,-0.473781 0.227522,-1.033537 0.271168,-1.124876 0.297814,-1.408449 0.1435,-1.527129 -0.168089,-0.129139 -0.613432,-0.254797 -0.700146,-0.197431 -0.04379,0.02911 -0.488777,0.761401 -0.988388,1.627265 -0.884946,1.533652 -0.917008,1.576536 -1.240829,1.66109 -0.182878,0.04764 -0.668988,0.199151 -1.080328,0.336494 -0.411362,0.137457 -0.785322,0.262151 -0.831044,0.277371 -0.04572,0.01512 -0.162708,-0.017 -0.259928,-0.07185 z M 104.44052,69.18005 c -0.11602,-0.241352 -0.23225,-0.581553 -0.25812,-0.756013 -0.0736,-0.495997 0.0811,-0.688758 0.74911,-0.93338 0.80192,-0.293632 1.07331,-0.444682 1.23498,-0.687341 0.0765,-0.114559 0.17135,-0.208511 0.21068,-0.208511 0.12609,0 0.18057,0.679287 0.0917,1.144239 -0.10934,0.573289 -0.28195,0.801427 -0.82649,1.092658 -0.25835,0.138213 -0.50652,0.347972 -0.60421,0.510819 -0.0911,0.152015 -0.21546,0.276313 -0.27618,0.276313 -0.0607,0 -0.20539,-0.197448 -0.32148,-0.438784 z m 3.03097,-1.208881 c -0.27296,-0.537234 -0.33586,-1.080729 -0.15194,-1.312589 0.0573,-0.07204 0.40304,-0.250616 0.76872,-0.396905 0.45959,-0.183778 0.76039,-0.366234 0.97454,-0.590948 0.27833,-0.292103 0.31613,-0.309363 0.37316,-0.170356 0.0348,0.08508 0.0616,0.394065 0.0596,0.686714 -0.006,0.757376 -0.19984,1.105932 -0.81267,1.455002 -0.34545,0.196786 -0.51958,0.356725 -0.60361,0.554571 -0.0647,0.152772 -0.17059,0.278015 -0.23516,0.278015 -0.0645,0 -0.23219,-0.22653 -0.37285,-0.50343 z M 104.02512,66.9559 c -0.10431,-0.26718 -0.0442,-0.81228 0.12774,-1.161804 0.14234,-0.28894 0.26371,-0.4011 0.6025,-0.556254 0.75279,-0.344738 1.39012,-0.218625 1.50546,0.297924 0.0776,0.347385 -0.0352,0.443887 -0.81694,0.69997 -0.49759,0.162983 -0.76587,0.306168 -1.00422,0.53593 -0.17884,0.172437 -0.33394,0.313523 -0.34463,0.313523 -0.01,0 -0.0421,-0.05825 -0.0699,-0.129327 z m 2.88708,-1.058776 c -0.0962,-0.24572 0.0248,-1.022627 0.19362,-1.24681 0.39649,-0.526457 1.24777,-0.818293 1.68462,-0.577472 0.27539,0.151828 0.47165,0.542568 0.36034,0.717462 -0.0451,0.07093 -0.41336,0.246533 -0.81823,0.390174 -0.5335,0.189263 -0.81281,0.341127 -1.01483,0.55168 -0.31604,0.32948 -0.33788,0.338327 -0.40552,0.16506 z M 76.426117,50.976476 c -0.430206,-0.227153 -0.859797,-0.396167 -1.011248,-0.397888 -0.144843,-0.0017 -0.537494,0.126478 -0.872574,0.284766 -0.418892,0.197827 -0.615295,0.255268 -0.628528,0.183969 -0.0093,-0.0571 0.236608,-0.931378 0.549345,-1.942792 0.312737,-1.011413 0.55605,-1.861565 0.540683,-1.88919 -0.01536,-0.02762 -0.606612,-0.389585 -1.313883,-0.804262 -1.111715,-0.651852 -1.320299,-0.746597 -1.539445,-0.699252 l -0.253478,0.05465 0.425599,-0.680762 c 0.635081,-1.015891 0.674883,-1.04866 1.271735,-1.048091 0.277678,2.47e-4 0.815309,0.02421 1.194665,0.05332 l 0.689755,0.05275 0.327087,0.580116 c 0.179995,0.319063 0.33696,0.606359 0.349024,0.638428 0.01151,0.03195 0.276394,-0.01701 0.587403,-0.111746 0.482916,-0.145399 0.561755,-0.194973 0.540144,-0.340733 -0.02535,-0.170347 -0.457794,-0.529927 -0.990368,-0.823388 l -0.281446,-0.15523 0.440964,-0.113063 0.440963,-0.113062 1.055895,0.569206 c 0.580737,0.313052 1.138745,0.655918 1.240001,0.761912 0.139849,0.146533 0.367313,0.894129 0.946667,3.112364 0.41939,1.605786 0.743444,2.938399 0.720123,2.961352 -0.02324,0.02288 -0.350218,-0.08792 -0.726482,-0.246288 -0.376244,-0.158443 -0.768224,-0.287978 -0.871095,-0.287978 -0.10296,0 -0.569325,0.18397 -1.036644,0.408684 -0.467319,0.224732 -0.894069,0.403786 -0.948337,0.397849 -0.05436,-0.0059 -0.435182,-0.188508 -0.846525,-0.405659 z m -5.009586,-1.174905 c -0.517323,-0.158821 -0.599868,-0.253943 -0.599868,-0.691065 0,-0.576374 0.340785,-1.167815 1.098366,-1.906261 0.3574,-0.34839 0.679399,-0.633438 0.715532,-0.633438 0.03631,0 0.136006,0.05048 0.221855,0.112321 0.152143,0.109291 0.152335,0.146152 0.0095,1.409848 -0.224583,2.003012 -0.161557,1.829763 -0.663703,1.823332 -0.23486,-0.0037 -0.587154,-0.05444 -0.782864,-0.114572 z m 0.796617,-6.847331 c -1.401479,-1.407653 -2.378958,-2.6286 -2.601833,-3.249841 -0.331392,-0.923719 0.533346,-1.891609 2.1528,-2.409727 l 0.707426,-0.226323 1.310252,0.552797 c 2.265849,0.955957 1.227112,0.858337 9.133942,0.858337 4.029884,0 7.004949,0.03159 7.122488,0.07563 0.254402,0.09529 0.316836,0.243452 0.380839,0.905287 l 0.0513,0.53126 0.366913,-0.01701 c 0.240164,-0.01138 0.651049,-0.150878 1.189616,-0.404862 0.684309,-0.322806 0.83555,-0.368109 0.899162,-0.269261 0.128128,0.199267 0.09678,0.269791 -0.428485,0.962236 -0.303612,0.400287 -0.488311,0.717951 -0.459859,0.790936 0.02611,0.06711 0.170385,0.198185 0.320454,0.291396 0.284115,0.176408 0.466307,0.179055 1.822392,0.02664 0.415568,-0.04691 0.479401,-0.03384 0.558593,0.111554 0.08219,0.151258 0.006,0.206394 -0.967807,0.695398 -1.367651,0.687074 -1.97914,0.891899 -2.802365,0.938676 -0.590722,0.03345 -0.690266,0.01701 -0.893333,-0.140105 -0.209795,-0.163172 -0.228549,-0.224184 -0.228549,-0.742398 v -0.564513 l -7.583124,-0.02211 -7.583103,-0.02211 -0.938173,-0.519746 -0.938139,-0.519707 -0.332811,0.226814 c -0.183071,0.12479 -0.352657,0.258427 -0.37692,0.297017 -0.02441,0.03857 0.239279,0.602536 0.585597,1.253238 l 0.629682,1.183052 h -0.253552 c -0.205104,0 -0.366258,-0.113063 -0.843489,-0.59254 z"
       id="path19013" />
  </g>
</svg>
