<?xml version="1.0" encoding="UTF-8" standalone="no"?>
<!-- Created with Inkscape (http://www.inkscape.org/) -->

<svg
   width="150mm"
   height="150mm"
   viewBox="0 0 150 150"
   version="1.1"
   id="svg5"
   inkscape:export-filename="C:\Users\eliso\Documents\GitHub\marinecoders.github.io\assets\press\marinecoders_small_text.png"
   inkscape:export-xdpi="145.14"
   inkscape:export-ydpi="145.14"
   inkscape:version="1.1.1 (3bf5ae0d25, 2021-09-20)"
   sodipodi:docname="marinecoders_small_text.svg"
   xmlns:inkscape="http://www.inkscape.org/namespaces/inkscape"
   xmlns:sodipodi="http://sodipodi.sourceforge.net/DTD/sodipodi-0.dtd"
   xmlns="http://www.w3.org/2000/svg"
   xmlns:svg="http://www.w3.org/2000/svg">
  <sodipodi:namedview
     id="namedview7"
     pagecolor="#979797"
     bordercolor="#666666"
     borderopacity="1.0"
     inkscape:pageshadow="2"
     inkscape:pageopacity="0"
     inkscape:pagecheckerboard="0"
     inkscape:document-units="mm"
     showgrid="false"
     inkscape:zoom="1.0104048"
     inkscape:cx="281.57032"
     inkscape:cy="333.03484"
     inkscape:window-width="1920"
     inkscape:window-height="991"
     inkscape:window-x="-9"
     inkscape:window-y="-9"
     inkscape:window-maximized="1"
     inkscape:current-layer="layer1" />
  <defs
     id="defs2">
    <rect
       x="-757.36969"
       y="449.81973"
       width="272.73254"
       height="180.21141"
       id="rect39684" />
  </defs>
  <g
     inkscape:label="Layer 1"
     inkscape:groupmode="layer"
     id="layer1">
    <circle
       style="fill:#d02929;fill-opacity:1;stroke:none;stroke-width:1;stroke-linecap:round;stroke-linejoin:round;paint-order:stroke fill markers"
       id="path19550"
       cx="164.28506"
       cy="16.803446"
       r="5" />
    <circle
       style="fill:#961c1c;fill-opacity:1;stroke:none;stroke-width:1;stroke-linecap:round;stroke-linejoin:round;paint-order:stroke fill markers"
       id="path19550-5"
       cx="164.47021"
       cy="22.821222"
       r="5" />
    <circle
       style="fill:#6f1414;fill-opacity:1;stroke:none;stroke-width:1;stroke-linecap:round;stroke-linejoin:round;paint-order:stroke fill markers"
       id="path19550-6"
       cx="164.37764"
       cy="28.931559"
       r="5" />
    <circle
       style="fill:#3a0b0b;fill-opacity:1;stroke:none;stroke-width:1;stroke-linecap:round;stroke-linejoin:round;paint-order:stroke fill markers"
       id="path19550-6-8"
       cx="164.47023"
       cy="34.949337"
       r="5" />
    <circle
       style="fill:#1a0505;fill-opacity:1;stroke:none;stroke-width:1;stroke-linecap:round;stroke-linejoin:round;paint-order:stroke fill markers"
       id="path19550-6-8-1"
       cx="164.56281"
       cy="40.226467"
       r="5" />
    <path
       style="fill:#c00909;stroke-width:0.13279"
       d="m 39.028714,67.130087 c -0.10917,-0.12781 -0.46755,-0.65068 -0.79639,-1.16192 -0.32885,-0.51124 -0.7119,-1.10177 -0.85122,-1.31227 -0.13932,-0.21051 -0.31307,-0.48065 -0.38611,-0.60031 -0.073,-0.11967 -0.26724,-0.40483 -0.43157,-0.63369 -0.16432,-0.22887 -0.29877,-0.45423 -0.29877,-0.50082 0,-0.0466 -0.062,-0.15687 -0.13785,-0.24508 -0.14837,-0.17262 -0.89422,-1.32934 -1.85401,-2.87533 -0.32866,-0.52938 -0.67225,-1.0421 -0.76355,-1.13936 -0.0913,-0.0973 -0.16598,-0.2139 -0.16598,-0.2592 0,-0.0453 -0.23161,-0.42304 -0.51469,-0.83943 -0.28308,-0.41638 -0.72042,-1.08571 -0.97186,-1.4874 -0.25144,-0.40169 -0.93111,-1.45968 -1.51037,-2.35109 -0.57926,-0.89141 -1.14529,-1.78775 -1.25785,-1.99186 -0.11255,-0.20411 -0.7848,-1.24514 -1.49389,-2.3134 -0.70908,-1.06825 -1.28924,-2.0094 -1.28924,-2.09144 0,-0.082 -0.0598,-0.14917 -0.13279,-0.14917 -0.073,0 -0.13279,-0.0637 -0.13279,-0.14165 0,-0.0779 -0.14939,-0.33751 -0.33198,-0.5769 -0.18258,-0.23938 -0.33197,-0.49931 -0.33197,-0.57763 0,-0.0783 -0.0479,-0.1623 -0.10653,-0.18665 -0.0991,-0.0412 -1.61975,-2.31852 -1.61975,-2.42572 0,-0.0527 -0.86238,-1.38577 -1.0365,-1.60226 -0.0587,-0.073 -0.42453,-0.64071 -0.81288,-1.26151 -0.38834,-0.62079 -0.9378,-1.46939 -1.22102,-1.88577 -0.28322,-0.41638 -0.51494,-0.84027 -0.51494,-0.94198 0,-0.10171 0.24854,-0.56773 0.55232,-1.03562 0.30377,-0.46788 0.84229,-1.29886 1.1967,-1.84662 0.35442,-0.54776 0.70271,-1.08556 0.774,-1.19511 0.0713,-0.10955 0.41937,-0.64735 0.77353,-1.19511 0.35417,-0.54777 0.87775,-1.35447 1.16351,-1.79268 0.28577,-0.43821 0.54357,-0.85377 0.57289,-0.92347 0.0293,-0.0697 0.10422,-0.1892 0.16644,-0.26558 0.22822,-0.2801 1.00234,-1.482447 1.30772,-2.031116 0.17276,-0.310397 0.35589,-0.564359 0.40696,-0.564359 0.0511,0 0.13065,-0.104573 0.17685,-0.232384 0.10848,-0.300083 0.25648,-0.544462 1.15091,-1.900409 0.40655,-0.616315 1.06386,-1.628497 1.4607,-2.249293 0.39683,-0.620795 0.76634,-1.148637 0.82111,-1.172982 0.0548,-0.02435 0.0996,-0.10032 0.0996,-0.168835 0,-0.112316 0.62959,-1.151721 0.79591,-1.313992 0.15365,-0.149902 0.93036,-1.487596 0.93036,-1.60231 0,-0.06818 0.0554,-0.123966 0.12306,-0.123966 0.0677,0 0.14255,-0.0747 0.16639,-0.165989 0.0238,-0.09129 0.56602,-0.957394 1.20485,-1.924669 0.63883,-0.967274 1.16151,-1.809532 1.16151,-1.871683 0,-0.06215 0.10457,-0.208147 0.23239,-0.324436 0.12781,-0.116288 0.35189,-0.439267 0.49796,-0.71773 0.14607,-0.278464 0.37015,-0.622138 0.49796,-0.76372 0.12781,-0.141583 0.23239,-0.304035 0.23239,-0.361006 0,-0.05697 0.22898,-0.449053 0.50884,-0.871296 0.27987,-0.422243 0.75437,-1.1561258 1.05445,-1.6308518 0.30008,-0.474726 0.6732,-1.027466 0.82916,-1.228312 l 0.28356,-0.365174 h 6.56303 c 4.79213,0 6.56302,0.04051 6.56302,0.150129 0,0.08257 -0.20914,0.441244 -0.46476,0.79705 -0.25562,0.355807 -0.46477,0.678102 -0.46477,0.716211 0,0.06364 -0.52365,0.8741308 -1.19887,1.8555578 -0.15074,0.219104 -0.7643,1.175855 -1.36347,2.126113 -0.59917,0.950259 -1.19471,1.876472 -1.32343,2.058253 -0.39049,0.551467 -1.42585,2.154986 -1.42585,2.208293 0,0.02747 -0.38841,0.618836 -0.86314,1.314147 -0.47472,0.695312 -0.86313,1.288778 -0.86313,1.318813 0,0.03004 -0.48046,0.790199 -1.06769,1.689252 -0.58722,0.899054 -1.16984,1.800779 -1.2947,2.003835 -0.12487,0.203056 -0.69014,1.084025 -1.25616,1.95771 -0.56601,0.873685 -1.02912,1.648701 -1.02912,1.722258 0,0.07356 -0.054,0.13374 -0.12012,0.13374 -0.0661,0 -0.3029,0.313721 -0.5263,0.697151 -0.57503,0.98693 -0.86417,1.46133 -0.98801,1.62104 -0.16418,0.21174 -1.24615,1.87133 -2.00346,3.07303 -0.37279,0.59155 -0.90189,1.41435 -1.17577,1.82845 -0.27388,0.4141 -0.49796,0.80653 -0.49796,0.87206 0,0.0655 -0.0472,0.13906 -0.10483,0.16341 -0.12641,0.0534 -0.95749,1.39807 -0.95749,1.54922 0,0.0587 0.34359,0.64392 0.76354,1.30057 0.9258,1.44761 0.8875,1.38845 1.62668,2.51261 0.64786,0.98527 0.86119,1.32398 1.64055,2.60485 0.28151,0.46265 0.59523,0.88897 0.69715,0.94738 0.10193,0.0584 0.18532,0.21775 0.18532,0.3541 0,0.13636 0.0448,0.26784 0.0996,0.29218 0.0548,0.0243 0.25268,0.28329 0.43978,0.57543 0.18711,0.29214 0.57552,0.88585 0.86314,1.31937 0.28762,0.43351 0.5827,0.88871 0.65574,1.01156 0.16964,0.28534 0.53539,0.84054 1.01563,1.5417 0.20826,0.30408 0.37867,0.59485 0.37867,0.64616 0,0.0513 0.19928,0.3702 0.44285,0.70864 0.24358,0.33844 0.67315,1.00376 0.95462,1.47849 0.28147,0.47472 0.54529,0.89301 0.58627,0.92953 0.13754,0.12257 0.67207,0.91788 0.67207,0.99996 0,0.0447 0.2689,0.458 0.59755,0.91857 0.32866,0.46057 0.59756,0.87507 0.59756,0.92111 0,0.046 0.31372,0.54887 0.69715,1.11739 0.38343,0.56852 0.78678,1.18699 0.89634,1.37438 0.10955,0.18738 0.42926,0.69281 0.71048,1.12318 0.99121,1.51696 1.38495,2.12411 2.2728,3.5047 0.49317,0.76686 1.12916,1.74227 1.41332,2.16757 0.28415,0.4253 0.51664,0.82865 0.51664,0.89633 0,0.0677 0.0598,0.12307 0.13279,0.12307 0.073,0 0.13279,0.0896 0.13279,0.19918 0,0.17437 -0.81658,0.19919 -6.55254,0.19919 -6.07638,0 -6.56698,-0.0169 -6.75104,-0.23238 z m 58.719645,0.0664 c 0.07974,-0.0913 0.389693,-0.5544 0.688786,-1.02913 0.87238,-1.38466 1.811165,-2.84883 2.894795,-4.51488 0.0713,-0.10955 0.37842,-0.58759 0.68259,-1.06232 0.30416,-0.47473 0.94248,-1.4607 1.41848,-2.19104 0.476,-0.73035 1.05466,-1.62669 1.28591,-1.99186 0.23125,-0.36517 0.72975,-1.142 1.10777,-1.72628 0.37802,-0.58427 0.74475,-1.15195 0.81496,-1.26151 0.17451,-0.27232 1.00591,-1.55087 1.94286,-2.98778 0.42861,-0.65731 0.80962,-1.26095 0.84669,-1.3414 0.0371,-0.0805 0.2835,-0.46887 0.54762,-0.86314 0.26412,-0.39427 0.80653,-1.22478 1.20535,-1.84557 2.28125,-3.55096 3.25478,-5.06311 4.16331,-6.46675 0.43486,-0.67184 0.91491,-1.44867 1.06679,-1.72628 0.27103,-0.49538 0.27159,-0.51291 0.0307,-0.94483 -0.43036,-0.77159 -2.42243,-3.80748 -2.52854,-3.85347 -0.0562,-0.0243 -0.10212,-0.0979 -0.10212,-0.16342 0,-0.12829 -0.7172,-1.30661 -1.34167,-2.20426 -0.21153,-0.30408 -0.38461,-0.59044 -0.38461,-0.63636 0,-0.0459 -0.0635,-0.15566 -0.14113,-0.24387 -0.18163,-0.20641 -1.41046,-2.09129 -2.06883,-3.173373 -0.28041,-0.460864 -0.55169,-0.869176 -0.60286,-0.907361 -0.0512,-0.03818 -0.17312,-0.217451 -0.27102,-0.398372 -0.0979,-0.180919 -0.6392,-1.03359 -1.20289,-1.894824 -0.56369,-0.861234 -1.02489,-1.613857 -1.02489,-1.672497 0,-0.05864 -0.11951,-0.214774 -0.26558,-0.346966 -0.14607,-0.132192 -0.26558,-0.290704 -0.26558,-0.352249 0,-0.06155 -0.20914,-0.403018 -0.46477,-0.758825 -0.25562,-0.355805 -0.46476,-0.676688 -0.46476,-0.71307 0,-0.07422 -1.11847,-1.798602 -1.34027,-2.066333 -0.0785,-0.09479 -0.21363,-0.303933 -0.30024,-0.464766 -0.0866,-0.160833 -0.46999,-0.759917 -0.85197,-1.331297 -0.38197,-0.571381 -0.69449,-1.068352 -0.69449,-1.104382 0,-0.03603 -0.14939,-0.261367 -0.33198,-0.500751 -0.18259,-0.239383 -0.33198,-0.476941 -0.33198,-0.527906 0,-0.05097 -0.0601,-0.164836 -0.13346,-0.253047 -0.20486,-0.246184 -1.32723,-1.934096 -1.32723,-1.995997 0,-0.06592 -1.138122,-1.8108458 -1.340271,-2.0548628 -0.07853,-0.09479 -0.212441,-0.304774 -0.297591,-0.466635 -0.08515,-0.161861 -0.293335,-0.487658 -0.462636,-0.723993 l -0.307822,-0.4297 6.68177,0.005 6.68176,0.005 0.49797,0.717352 c 0.27388,0.394543 0.49796,0.780688 0.49796,0.858099 0,0.07741 0.0598,0.140749 0.13279,0.140749 0.073,0 0.13279,0.06905 0.13279,0.153454 0,0.0844 0.14939,0.3493128 0.33198,0.5886968 0.18259,0.239383 0.33198,0.498986 0.33198,0.576893 0,0.07791 0.0487,0.141651 0.10833,0.141651 0.0596,0 0.24912,0.253962 0.42118,0.56436 0.17206,0.310398 0.55902,0.922894 0.85992,1.361102 0.3009,0.438209 0.71967,1.094607 0.93059,1.458662 0.21093,0.364056 0.49228,0.778675 0.62523,0.921375 0.13294,0.142701 0.24172,0.313594 0.24172,0.379762 0,0.148093 1.22304,2.00356 1.3611,2.064921 0.0548,0.02435 0.0996,0.0982 0.0996,0.164129 0,0.112263 0.62418,1.102991 2.71319,4.306484 0.47626,0.730348 1.06153,1.648059 1.30061,2.039358 0.23907,0.3913 0.52431,0.849643 0.63387,1.018539 0.10955,0.168897 0.70711,1.086527 1.3279,2.039177 0.6208,0.952653 1.24823,1.933793 1.3943,2.180323 0.28298,0.47759 0.72643,1.15627 1.54925,2.37102 0.27995,0.4133 0.509,0.80739 0.509,0.87575 0,0.0684 0.11952,0.23246 0.26558,0.36465 0.14607,0.13219 0.26559,0.29376 0.26559,0.35905 0,0.0653 0.23088,0.45937 0.51307,0.87575 0.79039,1.16624 1.69744,2.58303 1.87019,2.92121 0.13828,0.27069 0.0755,0.4279 -0.55703,1.3943 -0.39208,0.59907 -0.97805,1.50751 -1.30214,2.01875 -0.3241,0.51124 -0.63436,0.94945 -0.68947,0.97379 -0.0551,0.0243 -0.10021,0.10203 -0.10021,0.17263 0,0.0706 -0.31371,0.59694 -0.69715,1.16963 -0.76123,1.13699 -2.79586,4.28166 -3.22016,4.97702 -0.14607,0.23938 -0.70336,1.11647 -1.23841,1.9491 -0.53505,0.83262 -1.29418,2.02178 -1.68694,2.64258 -0.39277,0.62079 -0.84015,1.30798 -0.99419,1.52709 -0.15403,0.2191 -0.52593,0.78678 -0.82643,1.26151 -0.3005,0.47472 -0.75435,1.19179 -1.00856,1.59348 -1.70976,2.70169 -2.65156,4.1586 -2.80768,4.34328 -0.0746,0.0882 -0.13557,0.19796 -0.13557,0.24388 0,0.0459 -0.17249,0.33228 -0.38331,0.63636 -0.55791,0.8047 -1.66611,2.52287 -1.72695,2.67751 -0.0287,0.073 -0.17819,0.31082 -0.3321,0.52841 -0.15392,0.21759 -0.3396,0.49017 -0.41264,0.60573 -0.073,0.11556 -0.27314,0.43051 -0.44468,0.6999 l -0.3119,0.4898 h -6.69804 c -5.347228,0 -6.668801,-0.0335 -6.553059,-0.16599 z"
       id="path5739" />
    <path
       style="fill:#ffffff;stroke-width:0.0644436"
       d="m 69.699972,67.452638 c -0.06248,-0.01611 -0.113712,-0.04066 -0.113712,-0.05471 0,-0.0133 0.102296,-0.392651 0.227453,-0.841501 0.337949,-1.212613 0.375863,-1.1238 -0.53611,-1.255857 -3.345885,-0.484555 -7.539675,-1.940406 -11.286442,-3.918051 -0.700725,-0.369854 -0.979991,-0.555773 -1.196729,-0.796734 -0.155489,-0.172862 -0.36374,-0.355512 -0.462777,-0.40587 -0.128312,-0.0652 -0.211515,-0.186138 -0.289502,-0.42064 -0.116217,-0.349495 -0.321378,-0.702332 -0.642493,-1.10508 -0.108138,-0.135578 -0.262636,-0.43241 -0.343314,-0.659489 -0.08069,-0.227093 -0.265784,-0.592644 -0.411334,-0.812359 -0.145543,-0.219717 -0.264642,-0.443304 -0.264642,-0.496856 0,-0.08561 -0.161065,-0.58104 -0.292702,-0.900285 -0.03891,-0.09434 -0.0091,-0.111771 0.190863,-0.111771 0.349726,0 0.68755,-0.199299 1.116776,-0.658867 0.36086,-0.386354 0.40141,-0.410985 0.726648,-0.44128 0.44661,-0.04155 0.805617,-0.292942 1.150135,-0.805203 0.142973,-0.212559 0.303795,-0.388647 0.357405,-0.391294 0.505879,-0.02482 0.948519,-0.353678 1.322023,-0.981792 0.225916,-0.379922 0.266794,-0.415996 0.5176,-0.456745 0.149777,-0.02424 0.345414,-0.03786 0.434766,-0.03002 0.339095,0.02986 0.55707,0.02189 0.692828,-0.02543 0.135041,-0.04701 0.140509,-0.03223 0.140945,0.384934 4.91e-4,0.447148 0.112089,0.859449 0.368255,1.360578 0.08088,0.158181 0.167571,0.436341 0.192703,0.618148 0.05181,0.375044 0.313719,0.957738 0.613105,1.364202 0.180405,0.244935 0.192177,0.286599 0.107117,0.379019 -0.329674,0.358262 -0.390919,1.05925 -0.12654,1.448309 0.615651,0.906007 2.407218,2.168857 6.500792,4.582358 1.194283,0.704136 1.226594,0.744099 1.300889,1.608487 l 0.0404,0.469561 0.689506,0.04658 c 0.379229,0.02558 1.186641,0.0278 1.794205,0.0046 1.599933,-0.06076 2.306984,-0.235092 2.306805,-0.568871 -6.2e-5,-0.13735 -0.02403,-0.142672 -0.670806,-0.153701 -0.751409,-0.01182 -1.440587,-0.09181 -2.448274,-0.280984 -0.871253,-0.163519 -0.943685,-0.195823 -1.094409,-0.487955 -0.233266,-0.452204 -0.677339,-1.999749 -0.573814,-1.999749 0.01201,0 0.589857,0.246076 1.282833,0.546842 2.991447,1.298318 5.117426,1.905466 7.095982,2.026524 l 0.244847,0.01508 -0.233895,0.340713 c -0.128583,0.187411 -0.517213,0.619392 -0.86353,0.959971 -1.514115,1.489131 -3.372127,2.53132 -5.081265,2.850182 -0.496844,0.0927 -2.189984,0.130252 -2.482541,0.05499 z m -6.904379,-0.506272 c -0.07146,-0.01641 -0.196502,-0.04391 -0.277827,-0.06091 -0.08132,-0.01715 -0.205604,-0.08782 -0.276175,-0.15728 -0.112345,-0.110442 -0.128312,-0.214453 -0.128312,-0.835321 0,-0.552253 -0.02444,-0.749747 -0.110303,-0.89276 -0.06068,-0.10098 -0.09151,-0.202151 -0.06852,-0.224758 0.06444,-0.06328 0.632231,0.146666 0.91203,0.337329 0.316862,0.21596 0.407839,0.395948 0.460166,0.910324 0.02858,0.281057 0.08299,0.454659 0.17154,0.547344 0.160201,0.167703 0.168503,0.350946 0.01595,0.351906 -0.06251,4.73e-4 -0.216066,0.01182 -0.341163,0.02751 -0.125082,0.01508 -0.285919,0.0133 -0.357401,-0.003 z m 1.584358,-0.15311 c -0.129362,-0.07438 -0.216334,-0.29512 -0.319259,-0.810498 -0.07324,-0.366854 -0.147284,-0.522728 -0.426748,-0.898645 -0.106545,-0.143265 -0.105947,-0.143855 0.181653,-0.143855 0.414715,0 0.955137,0.175197 1.159051,0.375753 0.09716,0.09552 0.223556,0.334651 0.28263,0.534526 0.08121,0.274656 0.153648,0.388882 0.300978,0.474471 0.10665,0.06196 0.194047,0.158802 0.194047,0.215104 0,0.212692 -1.092158,0.414119 -1.372352,0.253097 z m -3.778133,-0.282655 c -0.536834,-0.188386 -0.592215,-0.336738 -0.425085,-1.138645 0.119916,-0.575363 0.121629,-0.633082 0.02454,-0.824557 -0.143213,-0.2823 -0.04687,-0.350028 0.271059,-0.190502 0.669563,0.335938 0.926856,0.731563 0.860622,1.32335 -0.03191,0.284931 -0.01502,0.414961 0.07732,0.592955 0.06499,0.125375 0.118187,0.250646 0.118187,0.278366 0,0.08146 -0.66096,0.05234 -0.926617,-0.04094 z M 65.957675,65.6433 c -0.211905,-0.316319 -0.365006,-0.57517 -0.340236,-0.57517 0.02463,0 0.438084,0.09787 0.91848,0.217425 0.48038,0.119608 0.960429,0.236806 1.066766,0.260491 l 0.19337,0.04317 -0.160864,0.127295 c -0.449511,0.355869 -0.74519,0.502075 -1.015439,0.502075 -0.276691,0 -0.276932,-1.94e-4 -0.662077,-0.575185 z m -7.142841,0.09802 c -0.404376,-0.185149 -0.665491,-0.441014 -0.665491,-0.652081 0,-0.08367 0.107236,-0.359814 0.238285,-0.613786 0.176862,-0.34271 0.240086,-0.547271 0.245257,-0.79348 0.0038,-0.182473 0.02441,-0.348891 0.04571,-0.369839 0.06975,-0.0686 0.644898,0.537734 0.772677,0.814562 0.157534,0.34129 0.157572,0.452649 2.47e-4,0.902132 -0.09465,0.270577 -0.111337,0.405516 -0.065,0.525435 0.151017,0.390613 -0.01127,0.44369 -0.571781,0.187057 z m -1.513037,-1.081103 c -0.415212,-0.299745 -0.64705,-0.589953 -0.64705,-0.809936 0,-0.102014 0.09705,-0.337136 0.215649,-0.522358 0.283025,-0.441989 0.381582,-0.693801 0.356893,-0.911891 -0.01112,-0.09817 0.01277,-0.189776 0.05287,-0.203705 0.119794,-0.04154 0.459463,0.282745 0.604206,0.576811 0.179032,0.363734 0.170284,0.654062 -0.03287,1.090477 -0.103302,0.221933 -0.162308,0.452337 -0.153372,0.598899 0.02906,0.476185 0.01836,0.481065 -0.396311,0.181703 z m -1.554366,-1.506975 c -0.367509,-0.352054 -0.552346,-0.703058 -0.483279,-0.917746 0.02462,-0.07659 0.171894,-0.282151 0.327288,-0.456995 0.324048,-0.36462 0.478462,-0.651874 0.478462,-0.89007 0,-0.218991 0.08116,-0.209633 0.28905,0.03327 0.4344,0.507735 0.474752,1.009869 0.122499,1.524302 -0.166645,0.243371 -0.247315,0.440436 -0.268327,0.655555 -0.01653,0.169167 -0.05323,0.321669 -0.08158,0.338895 -0.02832,0.01714 -0.201189,-0.112069 -0.384117,-0.287297 z m -1.283737,-1.554908 c -0.324814,-0.331914 -0.408246,-0.487626 -0.408246,-0.761941 0,-0.177283 0.06762,-0.279225 0.394822,-0.595381 0.415876,-0.401803 0.579914,-0.643296 0.579914,-0.853831 0,-0.2633 0.125908,-0.186671 0.319571,0.194477 0.138182,0.271966 0.200289,0.487009 0.200289,0.693581 0,0.267959 -0.03412,0.337712 -0.324714,0.664335 -0.228411,0.256722 -0.336939,0.440142 -0.36594,0.618504 -0.02265,0.139419 -0.0618,0.266037 -0.08692,0.281325 -0.02512,0.01522 -0.16408,-0.09331 -0.308789,-0.241068 z m 13.549117,-0.415466 c -0.275655,-0.165426 -0.50165,-0.315136 -0.502175,-0.332699 -4.96e-4,-0.01759 0.127981,-0.117097 0.285493,-0.221048 0.185694,-0.122565 0.320508,-0.274315 0.383253,-0.431404 0.05332,-0.133209 0.128134,-0.24229 0.166316,-0.24229 0.03829,0 0.175673,0.157192 0.305383,0.349319 0.288212,0.426923 0.365212,0.86396 0.186429,1.058258 -0.164964,0.179265 -0.260515,0.15839 -0.824699,-0.180136 z m -1.192434,-0.735403 c -0.149612,-0.126557 -0.178393,-0.209603 -0.206484,-0.596046 -0.03094,-0.424469 -0.02238,-0.460928 0.155547,-0.66778 0.334464,-0.388838 0.368441,-0.445612 0.407228,-0.680259 0.02102,-0.127001 0.07315,-0.242528 0.115963,-0.256545 0.09914,-0.03253 0.64976,0.46387 0.771553,0.695534 0.178003,0.338525 0.124226,0.483413 -0.33568,0.904792 -0.23549,0.21574 -0.470197,0.47218 -0.52154,0.569818 -0.113409,0.215664 -0.163041,0.219583 -0.386558,0.03046 z m 9.576206,-0.175154 c -2.122538,-0.17304 -4.525747,-0.980093 -6.275745,-2.107547 -0.415924,-0.267957 -0.511551,-0.355733 -0.422398,-0.387742 0.132937,-0.0476 1.3487,-0.21704 2.389648,-0.332833 l 0.714803,-0.07954 0.02029,-0.204309 c 0.01742,-0.175775 -0.0047,-0.21033 -0.154704,-0.247483 -0.300064,-0.07392 -2.687688,0.02308 -3.328629,0.13528 l -0.603946,0.105859 -0.421242,-0.363735 c -0.231704,-0.200051 -0.617871,-0.578538 -0.858195,-0.841072 -0.497369,-0.543382 -1.330752,-1.622933 -1.286484,-1.666473 0.01622,-0.01596 0.404072,-0.112363 0.861907,-0.21454 0.903019,-0.201324 2.073418,-0.352099 3.301767,-0.425357 0.748556,-0.04464 0.780642,-0.05249 0.801025,-0.193825 0.04837,-0.336118 -0.02478,-0.350724 -1.579247,-0.315389 -1.215973,0.02764 -1.606601,0.06283 -2.597706,0.233538 -0.641573,0.110592 -1.203806,0.186939 -1.249394,0.169731 -0.127081,-0.0479 -0.75987,-1.3845 -1.052675,-2.223208 L 64.394236,50.56485 64.63468,50.49861 c 0.532527,-0.146813 2.285012,-0.514333 2.742261,-0.575082 0.49725,-0.06594 2.236639,-0.19093 2.684664,-0.192705 0.240235,-7.53e-4 0.24716,-0.0072 0.227438,-0.2087 l -0.02044,-0.207696 -0.584854,-0.05145 c -0.874268,-0.07674 -2.532407,0.04894 -4.042561,0.306634 -0.722316,0.123158 -1.340674,0.224005 -1.374122,0.224005 -0.09091,0 -0.265315,-1.027035 -0.332319,-1.956876 -0.03254,-0.45111 -0.04841,-0.830767 -0.03532,-0.843628 0.04086,-0.04022 1.784236,-0.461476 2.567688,-0.620456 0.694194,-0.140899 2.030743,-0.268047 3.184139,-0.302983 l 0.487348,-0.01508 v -0.187674 c 0,-0.160504 -0.03289,-0.196284 -0.227436,-0.247291 -0.12693,-0.03326 -0.787251,-0.04421 -1.494603,-0.02455 -1.051099,0.02913 -1.499814,0.07438 -2.631759,0.266541 -0.750558,0.127295 -1.478145,0.256558 -1.616863,0.287207 l -0.252211,0.05573 0.04534,-0.549547 c 0.05128,-0.621564 0.118143,-1.02022 0.303921,-1.81185 l 0.129019,-0.549815 0.643975,-0.14356 c 0.354206,-0.07895 1.281208,-0.221015 2.060017,-0.315609 l 1.416026,-0.172005 v -0.186243 c 0,-0.165218 -0.0293,-0.192629 -0.259928,-0.242913 -0.449602,-0.09817 -2.378907,0.0072 -3.307136,0.181099 -0.250498,0.04688 -0.252551,0.04555 -0.208617,-0.126558 0.07356,-0.288315 0.588842,-1.374504 0.925358,-1.950693 l 0.316022,-0.541062 0.942241,-0.194137 0.942254,-0.194138 v -0.190857 c 0,-0.225363 -0.12783,-0.268371 -0.83284,-0.280406 l -0.442948,-0.0072 0.312984,-0.397783 c 0.30965,-0.393569 1.770679,-1.864677 1.811763,-1.824287 0.01201,0.01182 0.05602,0.336605 0.0987,0.722398 l 0.07735,0.70146 -0.269153,0.409565 c -0.426648,0.649198 -0.443276,0.77769 -0.239843,1.853322 0.09598,0.506791 0.209036,0.96806 0.25153,1.025053 0.04251,0.05692 0.413553,0.402027 0.824579,0.766751 0.411014,0.364724 1.028762,0.934675 1.372767,1.266532 0.585622,0.564969 0.638391,0.600612 0.828529,0.559541 0.111761,-0.02409 0.203058,-0.07333 0.203058,-0.109406 0,-0.03623 -0.191866,-0.378799 -0.426379,-0.76159 -0.234512,-0.382777 -0.408251,-0.724849 -0.38608,-0.76014 0.02223,-0.03519 0.13459,-0.06416 0.249762,-0.06416 0.185904,0 0.267619,0.06963 0.727226,0.619377 0.614159,0.734666 0.645765,0.784195 0.777081,1.217639 0.05993,0.197627 0.160983,0.373476 0.246395,0.428504 0.07962,0.05145 0.591253,0.252731 1.136794,0.447503 0.830303,0.296435 1.01221,0.341646 1.116564,0.277569 0.143453,-0.08797 0.593896,0.02913 1.276417,0.331858 0.380278,0.168737 0.397958,0.186983 0.4335,0.447623 0.05528,0.405927 0.08727,0.418937 0.793094,0.323637 0.709094,-0.09567 0.706088,-0.09684 0.971065,0.381888 0.170656,0.30838 0.175314,0.339441 0.0984,0.656175 -0.04446,0.182871 -0.163958,0.57514 -0.265667,0.871736 -0.101693,0.296565 -0.185107,0.584158 -0.185303,0.639083 -1.96e-4,0.05499 0.09357,0.329433 0.208347,0.610017 0.27953,0.683334 0.540916,0.927223 1.538102,1.43518 0.976234,0.497329 1.067699,0.605671 1.028463,1.218187 -0.01532,0.228468 -0.136094,1.033732 -0.269872,1.789467 -0.178467,1.008228 -0.226927,1.41769 -0.181968,1.537964 0.04341,0.115912 0.02539,0.331104 -0.06069,0.734978 -0.161524,0.755987 -0.134291,1.308076 0.07542,1.527599 0.08503,0.08901 0.20067,0.160341 0.256986,0.158464 0.05904,-0.0015 0.611126,-0.732317 1.304567,-1.725863 0.916553,-1.313238 1.240774,-1.731245 1.36464,-1.759455 0.08937,-0.02042 0.192437,-0.04555 0.229088,-0.05603 0.03666,-0.01035 0.353211,-0.42234 0.703461,-0.915218 0.549798,-0.77367 0.687034,-0.925316 1.004583,-1.109947 0.335665,-0.195159 0.456917,-0.339457 1.388059,-1.651808 0.561164,-0.790892 1.022167,-1.496167 1.024466,-1.567282 0.0032,-0.07998 -0.187589,-0.3145 -0.499443,-0.615723 -0.6544,-0.632046 -1.020422,-0.884642 -1.281829,-0.884642 -0.226159,0 -0.437553,-0.176634 -0.544866,-0.455251 -0.03561,-0.09224 -0.190997,-0.267012 -0.345504,-0.38844 -0.572807,-0.450194 -2.928928,-1.788254 -3.341007,-1.897397 -0.353255,-0.09358 -2.0071,-0.205594 -2.316478,-0.156952 -0.160713,0.02528 -0.295106,0.09847 -0.379391,0.206379 -0.07166,0.09197 -0.18045,0.231484 -0.241453,0.310035 -0.12032,0.154841 -0.727555,0.335747 -1.196686,0.356474 l -0.271099,0.01177 -0.10605,-0.340684 c -0.119884,-0.385328 -0.198881,-0.455868 -0.511941,-0.457256 l -0.220241,-7.7e-4 0.0398,-0.303574 c 0.02194,-0.166964 0.05874,-0.368273 0.08172,-0.447371 0.03844,-0.13247 0.02072,-0.143707 -0.225784,-0.143707 -0.265306,0 -0.409887,0.08959 -0.560684,0.347248 -0.05182,0.08841 -0.183472,0.119461 -0.620921,0.146517 l -0.555172,0.03401 -0.110106,-0.44876 c -0.122573,-0.499295 -0.150484,-1.691784 -0.04596,-1.962065 0.04102,-0.106153 0.163853,-0.207399 0.341164,-0.281321 0.425238,-0.177239 0.886557,-0.274804 1.001155,-0.211733 0.06084,0.03342 0.247159,0.02189 0.468288,-0.02942 0.615916,-0.142525 0.815099,-0.118427 0.997638,0.120643 0.08727,0.114285 0.224222,0.34305 0.304555,0.508462 0.173166,0.356651 0.535329,0.689852 0.749848,0.689852 0.183365,0 0.232124,-0.104527 0.232124,-0.497741 0,-0.244273 -0.06205,-0.397826 -0.357416,-0.884598 -0.494216,-0.81452 -0.488342,-0.899738 0.105299,-1.529376 l 0.46264,-0.490733 -0.0425,-0.295946 -0.04251,-0.29596 1.021388,-0.968324 c 0.836415,-0.792978 1.063656,-0.974978 1.254848,-1.005035 0.128431,-0.02026 0.286139,-0.07464 0.350506,-0.120791 0.104398,-0.07511 -0.01546,-0.153051 -1.106392,-0.720518 -1.161627,-0.604205 -1.535716,-0.733987 -1.686951,-0.585252 -0.02313,0.02276 0.035,0.21673 0.129484,0.430827 0.09435,0.214082 0.170955,0.423329 0.170116,0.464933 -7.21e-4,0.04154 -0.144954,0.137647 -0.320434,0.213418 -0.2655,0.114729 -0.312939,0.160163 -0.283301,0.271624 0.0661,0.248413 -0.24707,0.164302 -0.561571,-0.150877 -0.188127,-0.188505 -0.500781,-0.386916 -0.925086,-0.587073 -0.637744,-0.300822 -0.796998,-0.459641 -0.667516,-0.665665 0.02584,-0.0411 0.394354,-0.240443 0.818841,-0.442817 0.82297,-0.392342 0.832419,-0.4076 0.368697,-0.596489 -0.20088,-0.08191 -0.353631,-0.08722 -0.94224,-0.03357 -0.386377,0.03534 -0.848703,0.0525 -1.027411,0.03801 -0.226175,-0.01804 -0.769194,0.06829 -1.787007,0.284206 l -1.462117,0.310221 -0.150634,-0.169966 c -0.08277,-0.09343 -0.126779,-0.191861 -0.09749,-0.218649 0.204801,-0.188018 2.04309,-0.727719 3.172225,-0.931334 0.772816,-0.13942 2.926281,-0.191966 3.812357,-0.09316 1.796981,0.200495 3.75867,0.835898 5.268579,1.706481 0.277159,0.159808 0.517172,0.311647 0.53338,0.337417 0.01622,0.02572 -0.151867,0.02098 -0.373629,-0.01035 -0.221684,-0.03163 -0.913789,-0.06268 -1.538013,-0.06891 l -1.134949,-0.01182 -0.0631,0.174505 c -0.0347,0.09595 -0.04401,0.193282 -0.02072,0.216242 0.02328,0.02292 0.591689,0.109702 1.263005,0.19288 1.354093,0.167718 1.961931,0.275291 2.877643,0.509304 l 0.617347,0.157752 0.576366,0.556985 c 0.556176,0.537469 1.69024,1.864145 1.637677,1.915832 -0.01352,0.01329 -0.401084,-0.04775 -0.859923,-0.137054 -0.458839,-0.08914 -1.053577,-0.190783 -1.321629,-0.225616 -0.661733,-0.08604 -2.476802,-0.161476 -2.679636,-0.111327 -0.185513,0.04583 -0.284217,0.289986 -0.161434,0.399394 0.04371,0.03889 0.488689,0.10364 0.989062,0.144298 1.576756,0.127445 2.173954,0.23592 3.979338,0.721834 l 0.730199,0.196533 0.355569,0.711944 c 0.276678,0.553953 0.815817,1.8654 0.815817,1.984446 0,0.01035 -0.478757,-0.07511 -1.063896,-0.190958 -1.68057,-0.333144 -2.328256,-0.414386 -3.627489,-0.455045 l -1.214789,-0.03801 -0.04432,0.17378 c -0.02434,0.09552 -0.01878,0.196756 0.01201,0.224859 0.03125,0.02824 0.422506,0.08501 0.869254,0.126263 1.472471,0.136462 2.548898,0.319897 3.9178,0.667884 0.743029,0.188903 1.364025,0.356281 1.379981,0.371968 0.0616,0.06062 0.293093,1.567062 0.333126,2.167867 0.03065,0.46078 0.02166,0.631825 -0.03322,0.631825 -0.04144,0 -0.333002,-0.05633 -0.647835,-0.125375 -0.870516,-0.190693 -2.0173,-0.321966 -2.812767,-0.321966 h -0.715596 l 0.02042,0.205597 0.02042,0.205595 0.584856,0.08471 c 1.015029,0.146961 2.580683,0.456449 3.086661,0.610314 l 0.48738,0.148141 -0.01759,0.507236 c -0.01681,0.488086 -0.12167,1.214665 -0.279091,1.93678 l -0.0748,0.343095 -0.464093,-0.04731 c -0.818631,-0.08368 -1.696321,-0.13735 -1.780548,-0.108962 -0.08863,0.02986 -0.184179,0.31639 -0.124829,0.374659 0.02002,0.01951 0.491961,0.14341 1.048832,0.275261 0.556884,0.131731 1.027365,0.254135 1.045525,0.271994 0.09163,0.09019 -0.981203,2.475064 -1.294488,2.877386 -0.08201,0.105266 -0.116419,0.104823 -0.664735,-0.01182 -0.693278,-0.147257 -1.67678,-0.260018 -2.424313,-0.277954 -0.545108,-0.0133 -0.54652,-0.01182 -0.595384,0.162322 -0.02673,0.0964 -0.02419,0.190502 0.006,0.208879 0.0302,0.01832 0.479134,0.117833 0.997566,0.22118 1.326663,0.264261 2.120482,0.45247 2.118449,0.502279 -0.0078,0.183819 -1.563582,1.843491 -2.299488,2.452562 -0.332977,0.275572 -0.411013,0.312652 -0.584855,0.277953 -0.945199,-0.188668 -1.486478,-0.245249 -2.410001,-0.251887 l -1.039729,-0.0073 v 0.185711 0.185725 l 1.198683,0.215131 c 0.659271,0.118278 1.287988,0.238257 1.397134,0.26651 l 0.198431,0.05145 -0.324897,0.203068 c -0.554018,0.346259 -1.789489,0.944034 -2.4537,1.187226 -1.798227,0.658394 -4.002688,0.957637 -5.909402,0.802189 z M 53.382594,59.948984 c -0.264102,-0.303456 -0.396949,-0.633908 -0.341763,-0.85015 0.02061,-0.08071 0.256569,-0.325058 0.524364,-0.54291 0.37483,-0.304919 0.50461,-0.454215 0.563842,-0.648663 0.04235,-0.138977 0.09795,-0.252583 0.123642,-0.252583 0.109594,0 0.350914,0.686809 0.352968,1.004562 0.002,0.322026 -0.01096,0.346495 -0.378141,0.711454 -0.246159,0.244644 -0.395732,0.452176 -0.424059,0.588402 -0.02406,0.115766 -0.07616,0.221075 -0.115768,0.234072 -0.03961,0.0133 -0.176893,-0.097 -0.305079,-0.244184 z M 65.84799,59.175212 c -0.424235,-0.49483 -0.475647,-0.963033 -0.16097,-1.466007 0.146308,-0.233865 0.212567,-0.421941 0.218802,-0.621121 0.0047,-0.162173 0.04356,-0.296952 0.08893,-0.31178 0.12468,-0.04081 0.783257,0.610712 0.865785,0.856656 0.07991,0.238122 0.11431,0.164376 -0.438292,0.938148 -0.09644,0.134985 -0.191493,0.362699 -0.21135,0.506082 -0.01982,0.143262 -0.06896,0.271433 -0.109204,0.284561 -0.04026,0.0133 -0.154329,-0.07082 -0.253544,-0.186539 z m -16.1958,-0.218119 c -0.03461,-0.06594 -0.04863,-0.159688 -0.03109,-0.208124 0.03055,-0.08428 1.620216,-1.669475 1.674227,-1.669475 0.07648,0 0.355855,0.500108 0.356399,0.637962 7.37e-4,0.197982 0.260937,0.75881 0.487523,1.050984 l 0.168247,0.216936 -0.766834,0.0059 c -0.421761,0.0029 -1.005034,0.0235 -1.296169,0.04584 -0.476204,0.03652 -0.535649,0.02868 -0.592304,-0.0794 z m 2.846971,-0.668978 c -0.247957,-0.336646 -0.35211,-0.691096 -0.267436,-0.910145 0.03431,-0.08871 0.232049,-0.275441 0.439432,-0.41492 0.43612,-0.293312 0.701215,-0.557796 0.764033,-0.762315 0.06351,-0.206705 0.137625,-0.177932 0.247048,0.0958 0.277754,0.694972 0.203833,1.014142 -0.343251,1.482108 -0.245862,0.210327 -0.405579,0.403238 -0.43906,0.530327 -0.07621,0.28922 -0.176175,0.284001 -0.400766,-0.02099 z m 12.232117,-0.267928 c -0.540341,-0.588773 -0.593307,-0.933048 -0.239309,-1.555573 0.189754,-0.33372 0.226406,-0.453107 0.192939,-0.628542 -0.0242,-0.126704 -0.01232,-0.233702 0.02682,-0.257965 0.09393,-0.05707 0.470468,0.182046 0.711073,0.451557 0.267427,0.299537 0.261416,0.534421 -0.0236,0.92462 -0.339648,0.464994 -0.507135,0.822783 -0.464092,0.991476 0.05274,0.206617 -0.04858,0.243594 -0.203818,0.07438 z M 63.30356,56.616143 c -0.306503,-0.312504 -0.475477,-0.611214 -0.475477,-0.840557 0,-0.104969 0.134696,-0.309147 0.391638,-0.593796 0.281767,-0.312179 0.402659,-0.501705 0.430928,-0.675529 0.02159,-0.132915 0.06367,-0.256455 0.09351,-0.274581 0.09818,-0.05973 0.439892,0.486003 0.515621,0.823403 0.08551,0.3809 0.05312,0.486521 -0.294428,0.960904 -0.131105,0.178955 -0.227531,0.38662 -0.227531,0.490067 0,0.203929 -0.05751,0.381713 -0.123384,0.381713 -0.02453,0 -0.164378,-0.12227 -0.310895,-0.271624 z m -11.675301,-0.12774 c -0.352104,-0.727645 -0.291429,-0.907989 0.444859,-1.322183 0.349738,-0.196753 0.571231,-0.370859 0.67779,-0.53281 0.08707,-0.132323 0.183098,-0.216152 0.213424,-0.186332 0.03032,0.02986 0.0885,0.230641 0.129273,0.446248 0.118112,0.624563 0.02269,0.837892 -0.532871,1.191336 -0.325321,0.206971 -0.477623,0.349835 -0.546967,0.513074 -0.05288,0.124339 -0.124692,0.226205 -0.159623,0.226205 -0.03494,0 -0.136573,-0.150996 -0.225878,-0.335538 z m 10.490316,-1.593318 c -0.220174,-0.379154 -0.312555,-0.811342 -0.211407,-0.989096 0.03679,-0.06461 0.266301,-0.246921 0.510116,-0.405176 0.28522,-0.185149 0.483761,-0.367534 0.556785,-0.511448 0.06244,-0.123008 0.149763,-0.223692 0.194073,-0.223692 0.151592,0 0.277281,0.372057 0.277281,0.820817 v 0.437332 L 63.02642,54.39239 c -0.248372,0.218472 -0.448665,0.455237 -0.491849,0.581363 -0.0401,0.117096 -0.10572,0.223559 -0.145887,0.236719 -0.04017,0.01329 -0.161719,-0.128775 -0.270103,-0.315387 z m -8.095621,0.208168 c -0.201996,-0.08354 -0.338602,-0.267677 -0.419176,-0.565293 -0.04063,-0.150109 -0.129018,-0.399379 -0.19645,-0.554072 -0.106952,-0.245411 -0.110061,-0.285996 -0.02434,-0.318359 0.198367,-0.0748 0.644474,-0.03342 0.808439,0.07525 0.525521,0.347811 0.629831,0.398625 0.818677,0.398832 0.310811,5.03e-4 0.320415,0.105859 0.03935,0.432024 -0.418006,0.485029 -0.738136,0.650868 -1.026483,0.531748 z m -3.015328,-0.270058 c -0.03925,-0.110589 -0.07135,-0.369071 -0.07135,-0.574163 0,-0.319764 0.02546,-0.399054 0.178701,-0.556275 0.09829,-0.100832 0.376351,-0.262814 0.617921,-0.359948 0.256301,-0.10305 0.508157,-0.257166 0.604749,-0.370062 0.234375,-0.27393 0.32067,-0.158255 0.32067,0.429895 0,0.571105 -0.107464,0.717384 -0.68232,0.928821 -0.377553,0.138975 -0.566893,0.288198 -0.708974,0.559202 -0.102999,0.196472 -0.175048,0.18052 -0.259405,-0.05736 z m 13.621933,-0.40306 c -0.05885,-0.121531 -0.206976,-0.329965 -0.329049,-0.463338 -0.173484,-0.18951 -0.2317,-0.319245 -0.266511,-0.593961 -0.02453,-0.193353 -0.131783,-0.530357 -0.238397,-0.748935 -0.175597,-0.360005 -0.187127,-0.421939 -0.122454,-0.658126 0.03923,-0.143263 0.06545,-0.461075 0.0582,-0.705969 -0.01276,-0.427884 0.03263,-0.623486 0.101092,-0.436533 0.01797,0.04894 0.137911,0.389134 0.266589,0.755958 0.270976,0.772381 0.669624,1.633191 1.063566,2.296581 0.15201,0.256054 0.266531,0.473967 0.254407,0.484257 -0.02283,0.01936 -0.646448,0.290934 -0.668098,0.290934 -0.006,0 -0.06038,-0.09935 -0.119211,-0.220868 z m -9.294238,-0.804229 c -0.38891,-0.292117 -0.558452,-0.380913 -0.72722,-0.380913 -0.305165,0 -0.332712,-0.09182 -0.08275,-0.275883 0.386894,-0.284856 0.656099,-0.387507 1.024695,-0.390714 0.297602,-0.0029 0.411766,0.03194 0.682314,0.206542 0.227506,0.146811 0.370406,0.198499 0.47665,0.172493 0.08344,-0.02042 0.208384,-0.01937 0.277617,0.003 0.122529,0.03828 0.121972,0.04613 -0.0207,0.295797 -0.08063,0.141046 -0.270688,0.368997 -0.422374,0.506524 -0.398079,0.360865 -0.572867,0.341201 -1.208227,-0.135872 z m 6.098126,-0.649078 c -0.05996,-0.147552 -0.125622,-0.405412 -0.145827,-0.573174 -0.04841,-0.4017 0.08054,-0.599549 0.45184,-0.693432 0.786083,-0.198766 0.980792,-0.274404 1.173439,-0.455871 l 0.207617,-0.195588 0.01958,0.399733 c 0.01642,0.33387 -0.01052,0.458697 -0.162459,0.757601 -0.16911,0.332402 -0.211393,0.36932 -0.594572,0.519192 -0.24604,0.09624 -0.464576,0.231662 -0.541524,0.335524 -0.179056,0.24176 -0.281074,0.218268 -0.408103,-0.09404 z m -10.846444,-0.05942 c -0.09457,-0.464981 0.0041,-0.940381 0.233943,-1.127868 0.05484,-0.0448 0.340286,-0.150107 0.634283,-0.234188 0.331591,-0.09476 0.601485,-0.215916 0.710865,-0.318966 0.09698,-0.09137 0.196228,-0.146664 0.220555,-0.122713 0.02435,0.02395 0.04424,0.221386 0.04424,0.438797 0,0.59535 -0.154319,0.785155 -0.806255,0.991712 -0.381435,0.120791 -0.555938,0.214349 -0.685924,0.36749 -0.218622,0.257548 -0.30021,0.258864 -0.3517,0.0059 z m 2.579908,-0.0825 c -0.06089,-0.261721 -0.03608,-0.416071 0.239496,-1.490787 0.978816,-3.816953 2.344613,-7.22085 3.955715,-9.858545 0.675421,-1.105807 0.830897,-1.252102 1.393842,-1.31139 0.530972,-0.05588 0.871584,0.01937 1.029389,0.22708 0.119554,0.157501 0.378445,1.247221 0.378445,1.592963 0,0.09728 -0.074,0.533018 -0.164486,0.968441 -0.27132,1.305845 -0.724174,3.74448 -0.845398,4.552536 -0.09979,0.665091 -0.136455,0.78158 -0.301759,0.958641 -0.232653,0.249183 -0.484848,0.664292 -0.543705,0.89492 -0.02607,0.102014 -0.154873,0.248368 -0.312885,0.35532 -0.325163,0.22013 -0.854639,0.766766 -0.910579,0.940115 -0.02599,0.08043 -0.140943,0.152106 -0.319901,0.19918 -0.417989,0.10985 -1.076933,0.570099 -1.273787,0.889506 -0.09279,0.150553 -0.215939,0.274612 -0.273683,0.275736 -0.234622,0.0046 -1.035635,0.465554 -1.276587,0.734771 -0.172136,0.192318 -0.321005,0.292396 -0.47808,0.32139 -0.227168,0.04184 -0.228388,0.04081 -0.296037,-0.249877 z m 3.878254,-0.358382 c -0.392703,-0.226357 -0.62114,-0.318082 -0.792202,-0.318082 -0.132202,0 -0.255583,-0.02424 -0.274169,-0.05381 -0.04744,-0.07556 0.333396,-0.418703 0.642278,-0.578778 0.430151,-0.222951 0.631344,-0.2311 1.050009,-0.04257 0.251605,0.1134 0.465296,0.163828 0.652403,0.154308 0.153038,-0.0072 0.296847,0.0046 0.319586,0.02632 0.02274,0.02232 -0.05947,0.221832 -0.182714,0.443276 -0.218613,0.39283 -0.548106,0.691703 -0.759253,0.688716 -0.05727,-7.24e-4 -0.352432,-0.144595 -0.655938,-0.319541 z m 1.689023,-1.28154 c -0.328555,-0.145775 -0.500555,-0.183699 -0.774254,-0.171132 -0.231147,0.01035 -0.360949,-0.01035 -0.37833,-0.06149 -0.03807,-0.111773 0.532848,-0.690297 0.807862,-0.818658 0.177768,-0.08294 0.311801,-0.09787 0.56506,-0.06224 0.468327,0.0655 0.897428,0.06845 1.030025,0.0072 0.07873,-0.03637 0.125189,-0.0216 0.152669,0.04895 0.06274,0.160828 -0.17588,0.810734 -0.382796,1.042499 -0.238312,0.266953 -0.445315,0.270014 -1.020236,0.01508 z m -8.382382,-0.234828 c 4.93e-4,-0.362698 0.117586,-0.703751 0.316722,-0.92295 0.167013,-0.183833 0.219468,-0.200423 0.777318,-0.245869 0.363286,-0.02956 0.660515,-0.08886 0.756851,-0.150952 0.08726,-0.05618 0.188902,-0.102164 0.225901,-0.102164 0.176152,0 -0.01472,0.766707 -0.253337,1.018018 -0.14835,0.156185 -0.241325,0.189643 -0.625387,0.225081 -0.646933,0.05973 -0.737407,0.0859 -0.902755,0.261366 -0.208771,0.221546 -0.295738,0.197256 -0.295313,-0.0825 z m 11.021284,0.05929 c -0.04401,-0.07008 0.07555,-0.887246 0.149793,-1.023665 0.15172,-0.278809 0.312907,-0.350115 0.670626,-0.296684 0.188186,0.02824 0.576089,0.05692 0.862017,0.06416 0.457654,0.01182 0.522129,0.02764 0.538818,0.13602 0.02513,0.162912 -0.290453,0.617439 -0.568966,0.819516 -0.192112,0.13942 -0.290206,0.161479 -0.717357,0.161479 -0.334475,0 -0.535686,0.03046 -0.620952,0.09389 -0.142161,0.105858 -0.264869,0.123451 -0.313979,0.04539 z M 58.833039,49.66823 c -0.05319,-0.08471 0.183406,-0.525152 0.431052,-0.802559 0.313436,-0.351091 0.52503,-0.433753 0.990393,-0.386871 0.333321,0.03357 0.427829,0.01937 0.591636,-0.08902 0.339004,-0.224239 0.380999,-0.185429 0.338524,0.312771 -0.04009,0.470686 -0.141516,0.727231 -0.36667,0.927622 -0.135009,0.120052 -0.154988,0.120496 -0.710818,0.01582 -0.697114,-0.131437 -0.771394,-0.132325 -1.006747,-0.01182 -0.220175,0.112955 -0.2178,0.112512 -0.26737,0.03371 z m -8.481598,-0.469917 c 0,-0.318167 0.198432,-0.801998 0.395949,-0.965457 0.183856,-0.152149 0.246597,-0.164568 0.831284,-0.164568 0.455464,0 0.667714,-0.02616 0.758561,-0.09389 0.172624,-0.128331 0.288596,-0.121087 0.288596,0.01848 0,0.240326 -0.207592,0.702377 -0.394827,0.878818 -0.18491,0.174222 -0.222753,0.182916 -0.80408,0.184942 -0.541518,0.003 -0.627526,0.01817 -0.765718,0.145924 -0.199586,0.184351 -0.309765,0.182798 -0.309765,-0.0046 z m 12.704085,-0.01656 c -0.112508,-0.05218 -0.346092,-0.08382 -0.552354,-0.07466 -0.347295,0.01538 -0.356744,0.01035 -0.334385,-0.143561 0.03247,-0.224623 0.253508,-0.639734 0.451174,-0.847177 0.165756,-0.173958 0.471821,-0.234842 0.637587,-0.126854 0.03963,0.02572 0.09272,0.262651 0.117946,0.526293 0.0252,0.263609 0.06174,0.544016 0.08121,0.623101 0.04195,0.170704 -0.09437,0.185311 -0.401158,0.04303 z m 33.861665,-1.118345 c -0.188878,-0.220749 -0.204412,-0.284619 -0.08698,-0.357538 0.204522,-0.127 1.959771,-0.91575 2.03788,-0.91575 0.04827,0 0.105753,0.07909 0.127675,0.17576 0.02194,0.09655 0.05375,0.226577 0.07094,0.288687 0.02523,0.09167 -0.14916,0.197273 -0.922874,0.559217 -0.524741,0.245441 -0.977529,0.446261 -1.006187,0.446261 -0.02869,0 -0.127832,-0.08841 -0.220352,-0.196637 z M 59.643945,47.914057 c 0,-0.223752 0.392316,-0.930033 0.601374,-1.082639 0.114116,-0.08338 0.333259,-0.146368 0.6046,-0.173987 0.30127,-0.03075 0.468523,-0.08294 0.572495,-0.179043 0.0808,-0.07466 0.196179,-0.135577 0.256422,-0.135577 0.09448,0 0.109536,0.07778 0.109536,0.566566 0,0.468394 -0.02235,0.594523 -0.129003,0.727866 -0.121191,0.151528 -0.171563,0.16272 -0.832306,0.184971 -0.528343,0.01775 -0.746258,0.05145 -0.875942,0.134837 -0.233332,0.150404 -0.307171,0.140012 -0.307171,-0.04287 z m -8.995182,-0.532839 c 0.08944,-0.394309 0.352006,-0.826422 0.57343,-0.943693 0.204935,-0.10852 0.263787,-0.110887 0.785093,-0.03105 0.45794,0.07009 0.606149,0.07096 0.79086,0.0059 0.125022,-0.04451 0.243962,-0.06447 0.264315,-0.04451 0.07356,0.0723 -0.203322,0.651117 -0.408554,0.854097 -0.234796,0.232195 -0.397604,0.254327 -1.027999,0.139716 -0.3326,-0.06047 -0.402429,-0.05337 -0.631272,0.06386 -0.339656,0.17412 -0.393759,0.167259 -0.345873,-0.04391 z m 44.577875,-0.183464 c -0.09194,-0.197583 -0.167224,-0.38242 -0.167224,-0.410794 0,-0.02838 0.07724,-0.111179 0.171609,-0.184304 l 0.171633,-0.132769 -1.050918,-2.220545 c -0.578023,-1.221273 -1.076036,-2.26024 -1.106713,-2.308778 -0.04464,-0.07053 -0.243193,-0.0046 -0.988957,0.331177 -0.513226,0.230685 -0.970704,0.428564 -1.016592,0.439756 -0.05286,0.0133 -0.176111,-0.219242 -0.336309,-0.633288 -0.276246,-0.713967 -0.723217,-1.650565 -1.035393,-2.169552 -0.238246,-0.396052 -0.184906,-0.435823 0.313856,-0.234013 0.224754,0.09093 0.498075,0.146812 0.722508,0.147846 0.287102,0.0015 0.406884,0.03577 0.584857,0.168239 0.345156,0.257089 0.716533,0.405528 1.018365,0.40708 0.220352,0.0015 0.295696,0.03296 0.381048,0.16108 0.157694,0.236702 0.680465,0.591846 1.143657,0.776951 0.224559,0.08975 0.509121,0.250215 0.632339,0.356621 0.260846,0.225245 0.784141,0.47765 1.109817,0.535324 0.124977,0.02218 0.300543,0.10719 0.389889,0.188876 0.220578,0.201767 0.663024,0.384433 1.162036,0.479691 l 0.414709,0.07909 0.350623,0.733868 c 0.192825,0.403637 0.342498,0.740728 0.33257,0.749082 -0.0089,0.0089 -0.14961,0.07955 -0.310454,0.158094 -0.160822,0.07864 -0.358228,0.202196 -0.438624,0.274639 -0.161001,0.145187 -0.199487,0.476823 -0.06128,0.528954 0.04659,0.01759 0.370385,-0.09832 0.719403,-0.257639 0.349004,-0.15932 0.700211,-0.289663 0.780478,-0.289663 0.114464,0 0.186374,0.08324 0.333094,0.385113 0.18515,0.380986 0.18581,0.3864 0.0607,0.504275 -0.17235,0.162367 -3.778191,1.794806 -3.964497,1.794806 -0.117613,0 -0.18392,-0.07525 -0.316121,-0.359211 z m -35.243784,-1.15967 c 0.01727,-0.237828 0.09268,-0.568545 0.167516,-0.734933 0.124091,-0.275897 0.177908,-0.321256 0.61181,-0.515719 0.341724,-0.153156 0.498565,-0.26249 0.556733,-0.38804 0.04871,-0.105267 0.122633,-0.166639 0.185538,-0.154293 0.143995,0.02838 0.355331,0.587381 0.364031,0.963105 0.0094,0.406224 -0.113545,0.523423 -0.723591,0.689691 -0.570353,0.155433 -0.824891,0.277391 -0.932465,0.446809 -0.04394,0.0692 -0.120636,0.125819 -0.170462,0.125819 -0.07161,0 -0.084,-0.09049 -0.05913,-0.432424 z m -7.774158,-0.284561 c -0.327403,-0.112068 -0.416795,-0.120201 -0.600708,-0.05484 -0.317845,0.112956 -0.362234,0.04628 -0.217788,-0.327629 0.141155,-0.36536 0.409822,-0.676207 0.631801,-0.731015 0.09096,-0.02247 0.372343,0.05337 0.737725,0.198899 0.479178,0.190797 0.638787,0.227182 0.845711,0.192808 0.357092,-0.05943 0.331354,0.04198 -0.124437,0.49035 -0.337541,0.331961 -0.407589,0.372693 -0.633579,0.368197 -0.139742,-0.003 -0.427172,-0.06431 -0.638725,-0.136759 z m 1.001978,-1.423989 c -0.275708,-0.17032 -0.427964,-0.22112 -0.666071,-0.222229 -0.169767,-7.39e-4 -0.308667,-0.02528 -0.308667,-0.05441 0,-0.128037 0.418105,-0.656781 0.613184,-0.775357 0.30105,-0.18299 0.41894,-0.165483 0.840072,0.124636 0.5207,0.358721 0.716103,0.448036 0.980362,0.448036 0.277446,0 0.287383,0.05145 0.05195,0.26911 -0.535976,0.495525 -0.954692,0.553791 -1.51084,0.21021 z m 7.083094,-0.02795 c 0,-0.1304 0.329064,-1.763298 0.379812,-1.884665 0.04455,-0.106599 0.08824,-0.07259 0.32538,0.253041 0.457191,0.627921 0.456603,0.901555 -0.0023,1.241972 -0.424453,0.314635 -0.702557,0.468869 -0.702557,0.389652 z m -5.671177,-1.079341 c -0.39658,-0.35294 -0.573543,-0.458503 -0.768597,-0.458503 -0.0949,0 -0.207072,-0.04096 -0.249289,-0.09108 -0.06252,-0.07423 -0.01292,-0.138384 0.268221,-0.347042 0.727043,-0.539745 0.882294,-0.528184 1.530923,0.114138 0.507171,0.502148 0.511069,0.508535 0.41957,0.687031 -0.137986,0.269155 -0.265436,0.33993 -0.612159,0.33993 -0.272689,0 -0.350047,-0.03209 -0.588669,-0.244495 z m 46.007559,-0.442492 c -0.10725,-0.116503 -0.39078,-0.721937 -0.35471,-0.757405 0.0105,-0.01035 0.24065,0.04834 0.50954,0.132322 0.2689,0.08398 0.66971,0.172819 0.89073,0.197422 0.22101,0.02455 0.40183,0.06757 0.40183,0.09536 0,0.02795 -0.18014,0.139272 -0.40026,0.247378 -0.46339,0.227743 -0.8843,0.261852 -1.04713,0.08486 z m -1.910359,-0.04524 c -0.295649,-0.12641 -0.346243,-0.26855 -0.34651,-0.973115 -1.95e-4,-0.519666 -0.02314,-0.664203 -0.133388,-0.842225 -0.07333,-0.118129 -0.118522,-0.229474 -0.100345,-0.247245 0.01806,-0.01775 0.187782,0.09581 0.377152,0.252552 0.189357,0.156673 0.490496,0.381061 0.669205,0.498658 0.39891,0.262458 0.42016,0.291955 0.42141,0.584794 7.3e-4,0.156113 0.0554,0.298356 0.16344,0.424631 0.0894,0.104382 0.16245,0.218326 0.16245,0.253101 0,0.157412 -0.877027,0.192717 -1.213328,0.04879 z M 61.645998,42.346769 c -0.482237,-0.471959 -0.754714,-0.93132 -0.965699,-1.628093 -0.186062,-0.614481 -0.339772,-0.913208 -0.555936,-1.080436 -0.255466,-0.197643 -0.981773,-0.186038 -1.623772,0.02588 -0.266172,0.08781 -0.553768,0.159777 -0.639105,0.159777 -0.121537,0 -2.016905,-0.776284 -2.104782,-0.862051 -0.08715,-0.08501 0.387629,-0.697603 1.019217,-1.314981 1.165313,-1.139103 2.515635,-1.935821 4.156125,-2.452237 1.226505,-0.386074 2.044351,-0.500713 3.628815,-0.508594 0.756469,-0.0046 1.39755,0.01508 1.424648,0.04154 0.02718,0.02662 -0.04401,0.170409 -0.157814,0.319557 -1.220448,1.598048 -2.227815,3.655591 -3.582483,7.317187 -0.08128,0.219686 -0.153478,0.399439 -0.160446,0.399439 -0.0067,0 -0.20442,-0.187663 -0.438768,-0.417002 z m -0.811526,-3.422183 c 0.238768,-0.0652 0.758947,-0.461373 0.758947,-0.578008 0,-0.03104 -0.192872,-0.05648 -0.428608,-0.05648 -0.287334,0 -0.490461,-0.03593 -0.616282,-0.108965 -0.192109,-0.111476 -0.384731,-0.427722 -0.384731,-0.63138 0,-0.223013 0.271298,-0.662075 0.491989,-0.796217 0.122559,-0.0745 0.222826,-0.161848 0.222826,-0.194137 0,-0.128332 -0.62595,-0.05782 -0.966345,0.108964 -0.422256,0.206956 -0.665521,0.542612 -0.707946,0.97687 -0.03937,0.402911 0.06458,0.699937 0.335233,0.957929 0.360201,0.343345 0.807934,0.454527 1.294917,0.321525 z m -4.820243,3.266621 c -0.09531,-0.1668 -0.218913,-0.278308 -0.366708,-0.330867 -0.296845,-0.10571 -0.325877,-0.214808 -0.09926,-0.373521 0.480556,-0.33653 0.974073,-0.462066 1.194213,-0.303751 0.103753,0.07466 0.08756,0.124783 -0.207333,0.642202 -0.175941,0.308676 -0.332774,0.573884 -0.348517,0.589364 -0.01575,0.01554 -0.09331,-0.08501 -0.172395,-0.223442 z m 41.07662,0.07998 c -0.669631,-0.194138 -0.782092,-0.450712 -0.536005,-1.222814 0.138196,-0.433591 0.162821,-0.75374 0.06911,-0.899219 -0.03181,-0.04938 -0.04324,-0.127889 -0.02509,-0.174181 0.04401,-0.112658 0.325474,0.02971 0.678064,0.342947 0.38964,0.346199 0.448473,0.501512 0.435004,1.148314 -0.0062,0.309355 0.01203,0.641538 0.04011,0.738199 0.04809,0.163343 0.03861,0.175392 -0.134436,0.170602 -0.10245,-0.0029 -0.339483,-0.04951 -0.526711,-0.10379 z m 4.105541,-0.558271 c -0.97893,-0.248931 -1.972645,-0.808531 -2.650983,-1.492944 -0.289833,-0.292427 -0.335182,-0.315684 -0.557878,-0.286321 -0.207891,0.0275 -0.291007,-0.0046 -0.583998,-0.222303 -0.331648,-0.246875 -0.697646,-0.398817 -0.960711,-0.398817 -0.07059,0 -0.184268,-0.06048 -0.25232,-0.134393 -0.185538,-0.201648 -0.597269,-0.417581 -1.028067,-0.53917 -0.247776,-0.06993 -0.437286,-0.170393 -0.533378,-0.282699 -0.188621,-0.220468 -0.834054,-0.507958 -1.248803,-0.556275 -0.257843,-0.03002 -0.36391,-0.08354 -0.560207,-0.282431 -0.278702,-0.282417 -0.754942,-0.478684 -1.45277,-0.598736 -0.261533,-0.04494 -0.499396,-0.10719 -0.528571,-0.138238 -0.09838,-0.104379 -0.977159,-2.018998 -0.948064,-2.06529 0.03979,-0.06343 3.214977,-1.50038 3.24416,-1.46821 0.01203,0.01508 0.437544,0.902562 0.943522,1.973937 0.505969,1.071358 0.947015,1.97454 0.980076,2.007054 0.105449,0.103641 0.997516,-0.327393 1.28442,-0.620663 l 0.260892,-0.266672 0.03587,-0.766913 c 0.05786,-1.234227 0.390531,-2.223738 1.056688,-3.141883 0.161665,-0.222804 0.299754,-0.4051 0.306907,-0.4051 0.0078,0 0.01203,0.237249 0.01203,0.527253 0,0.462656 0.02525,0.578154 0.206522,0.942657 0.113565,0.228483 0.262667,0.50169 0.331281,0.607133 0.118372,0.18172 0.120169,0.228484 0.03683,0.894757 -0.114011,0.91087 -0.07856,1.185911 0.171574,1.331243 0.691073,0.401495 1.118803,1.36191 0.916163,2.057221 l -0.0742,0.25437 0.39215,0.359711 c 0.715115,0.655939 1.601805,1.014334 2.509535,1.014334 0.93416,0 1.66304,-0.316392 2.29467,-0.996075 1.45869,-1.569692 1.12516,-4.35102 -0.70676,-5.893716 -0.21537,-0.181364 -0.32675,-0.324939 -0.32675,-0.421171 0,-0.164539 -0.34789,-0.883418 -0.47949,-0.990843 -0.0627,-0.05145 -0.0775,-0.202372 -0.0548,-0.565485 0.017,-0.272497 0.039,-0.504663 0.0488,-0.515913 0.0391,-0.04465 0.93361,0.343922 1.35817,0.590131 0.5431,0.31493 1.47319,1.195093 1.85498,1.755433 0.38027,0.558079 0.74247,1.338549 0.92295,1.988781 0.12919,0.465465 0.15049,0.689661 0.14811,1.565803 -0.003,1.109016 -0.0686,1.465002 -0.42083,2.280631 -0.99731,2.308823 -3.4915,3.524674 -5.94875,2.899812 z M 95.4818,41.552993 c -0.339348,-0.150405 -0.600836,-0.396052 -0.657418,-0.617764 -0.0269,-0.104972 -0.0016,-0.340137 0.06231,-0.57514 0.132638,-0.489686 0.13639,-0.753444 0.01203,-0.938578 -0.05214,-0.07821 -0.07403,-0.174342 -0.04871,-0.213654 0.07169,-0.111329 0.623013,0.08871 0.905201,0.328739 0.210165,0.178659 0.241545,0.241715 0.24181,0.485913 1.97e-4,0.154338 -0.05637,0.475196 -0.125571,0.713022 -0.0972,0.333796 -0.110563,0.472534 -0.05847,0.608449 0.06747,0.175584 0.05315,0.337255 -0.029,0.328694 -0.02376,-0.0029 -0.160288,-0.05632 -0.303247,-0.119607 z m -1.59209,-0.895688 c -0.306797,-0.161211 -0.644348,-0.516607 -0.706303,-0.743609 -0.0308,-0.112957 -0.01352,-0.351006 0.04323,-0.607328 0.08548,-0.383678 0.08383,-0.44227 -0.01727,-0.651857 -0.153089,-0.317103 -0.09704,-0.369205 0.289012,-0.269037 0.438318,0.113693 0.772593,0.327628 0.82347,0.526969 0.02415,0.09476 -0.02166,0.420625 -0.108007,0.768644 -0.124821,0.503033 -0.137446,0.638463 -0.07466,0.809359 0.125283,0.340862 0.106199,0.353708 -0.249455,0.166859 z m -1.78699,-0.939511 c -0.555792,-0.287652 -0.750618,-0.632417 -0.700851,-1.240156 0.02571,-0.314013 0.0078,-0.469904 -0.07106,-0.619953 -0.17464,-0.332168 -0.144504,-0.411147 0.138199,-0.361693 0.361691,0.06328 0.828645,0.272541 0.993743,0.445375 0.128737,0.134688 0.139096,0.187707 0.09087,0.458177 -0.06879,0.38461 -0.06896,1.091038 -4.92e-4,1.280474 0.04464,0.123305 0.03017,0.143413 -0.101699,0.141195 -0.08456,-0.0015 -0.24152,-0.0479 -0.348729,-0.103346 z m 9.7149,-0.299273 c -0.16085,-0.04391 -0.34661,-0.109997 -0.41281,-0.146959 -0.11326,-0.06329 -0.1107,-0.07496 0.0464,-0.196357 0.10171,-0.0788 0.31924,-0.146071 0.55768,-0.172582 0.2749,-0.0306 0.44695,-0.09005 0.58018,-0.200229 0.10425,-0.08619 0.22121,-0.156748 0.26005,-0.156748 0.0996,0 0.1496,0.242721 0.12587,0.611379 l -0.0203,0.315313 -0.42236,0.0133 c -0.23233,0.0072 -0.554,-0.02291 -0.71483,-0.06683 z M 90.640594,39.247734 c -0.188517,-0.0507 -0.637429,-0.278913 -0.7813,-0.397102 -0.296347,-0.24343 -0.388382,-0.447872 -0.388382,-0.862761 0,-0.315905 -0.03049,-0.450786 -0.129934,-0.575185 -0.07137,-0.08929 -0.129934,-0.201205 -0.129934,-0.248531 0,-0.239454 1.056914,-0.150997 1.341934,0.112216 0.154292,0.142526 0.156894,0.161539 0.113703,0.832927 -0.03785,0.587972 -0.02837,0.710952 0.06637,0.853017 0.150487,0.225793 0.113268,0.340685 -0.09237,0.285332 z m 12.996526,-0.145036 c 0,-0.259858 0.19328,-0.804053 0.34335,-0.966686 0.12484,-0.135278 0.94811,-0.514476 1.00203,-0.461444 0.0105,0.01035 -0.0686,0.19263 -0.17622,0.404569 -0.18807,0.370105 -0.71537,0.935147 -1.02466,1.097928 -0.13023,0.0686 -0.14452,0.0612 -0.14452,-0.07438 z m -2.81589,-0.344027 c -0.0768,-0.07557 -0.0461,-0.627862 0.053,-0.956128 0.11009,-0.365092 0.28272,-0.549206 0.65188,-0.695767 0.14255,-0.05648 0.36823,-0.223309 0.5017,-0.370535 0.27648,-0.305007 0.28811,-0.298975 0.50434,0.261971 0.26741,0.693683 0.12107,1.011909 -0.55009,1.196704 -0.50133,0.13809 -0.85705,0.318374 -0.94431,0.478745 -0.0716,0.131728 -0.14121,0.159008 -0.2165,0.08501 z M 88.754112,38.316608 c -7.66e-4,-0.03223 -0.248737,-0.331798 -0.550319,-0.665711 l -0.548349,-0.607148 0.176683,-0.04879 c 0.279029,-0.07702 0.648506,0.0089 0.7884,0.1841 0.12483,0.156096 0.263896,1.06994 0.175995,1.156415 -0.0222,0.02189 -0.04128,0.0133 -0.04253,-0.01878 z m 14.423738,-0.513177 c -0.0963,-0.243902 -0.0428,-0.964155 0.0909,-1.218199 0.0639,-0.121679 0.24914,-0.282329 0.46615,-0.404436 0.25406,-0.14297 0.38731,-0.266821 0.45271,-0.420745 0.13324,-0.31354 0.26481,-0.272496 0.47892,0.14934 0.24598,0.484585 0.29379,0.700426 0.20299,0.916062 -0.0737,0.175021 -0.17427,0.237901 -0.80692,0.504602 -0.17682,0.07465 -0.43184,0.253084 -0.56667,0.396732 l -0.24517,0.261186 z m -2.92719,-0.677361 c -0.11492,-0.211171 -0.15124,-0.95376 -0.06,-1.225814 0.0553,-0.164688 0.18467,-0.311809 0.43285,-0.492125 0.24607,-0.17876 0.36559,-0.314101 0.39196,-0.443747 0.0663,-0.326462 0.18058,-0.349407 0.39616,-0.07954 0.30817,0.385628 0.41491,0.638611 0.39322,0.93185 -0.0211,0.285254 -0.02,0.284161 -0.90259,0.811725 -0.15031,0.08975 -0.32195,0.264615 -0.39216,0.399422 -0.0686,0.13188 -0.13775,0.239676 -0.15371,0.239676 -0.0159,0 -0.0635,-0.06357 -0.10575,-0.141341 z m 2.26888,-0.92913 c -0.0411,-0.09655 -0.0872,-0.414681 -0.10258,-0.706738 l -0.0281,-0.530979 0.42919,-0.403828 c 0.24905,-0.234339 0.42922,-0.457498 0.42922,-0.531674 0,-0.07023 0.0416,-0.161907 0.0927,-0.203556 0.0755,-0.0618 0.14134,-0.01522 0.35602,0.251813 0.3216,0.40015 0.44814,0.76326 0.34419,0.987664 -0.0398,0.08604 -0.3045,0.305466 -0.58805,0.487584 -0.34845,0.223767 -0.56133,0.411191 -0.6568,0.578289 -0.0777,0.135871 -0.15476,0.247185 -0.17123,0.247185 -0.0164,0 -0.0634,-0.07909 -0.1047,-0.17576 z m -2.965945,-0.802543 c -0.14751,-0.174888 -0.3325,-0.660507 -0.33387,-0.876837 -0.003,-0.298207 0.13326,-0.473909 0.57488,-0.747456 0.473355,-0.293196 0.658365,-0.461031 0.658365,-0.597183 0,-0.224507 0.19085,-0.190249 0.31926,0.05721 0.34145,0.658275 0.24612,0.977034 -0.42565,1.422837 -0.34477,0.228822 -0.487405,0.364606 -0.515475,0.490749 -0.0817,0.367309 -0.13699,0.417165 -0.27751,0.250601 z m 2.341175,-0.828698 c -0.15389,-0.182369 -0.3343,-0.664662 -0.33565,-0.897387 -0.003,-0.339575 0.0752,-0.450727 0.51924,-0.747264 0.4686,-0.312962 0.64901,-0.495125 0.64901,-0.655287 0,-0.200541 0.21584,-0.102458 0.34459,0.156585 0.2866,0.576646 0.20307,0.961537 -0.27403,1.262627 -0.40911,0.258201 -0.59635,0.464315 -0.64817,0.713556 -0.048,0.231588 -0.14629,0.295945 -0.25499,0.16717 z m -12.977827,-0.688791 -0.187956,-0.386766 0.212956,-0.195721 c 0.288691,-0.265371 0.347339,-0.449337 0.322611,-1.011924 l -0.02102,-0.479335 0.877254,-0.426804 c 0.482504,-0.234767 0.939583,-0.428876 1.015754,-0.431389 0.184182,-0.0059 0.511359,0.401389 0.395933,0.493055 -0.04385,0.03459 -0.32255,0.171872 -0.619582,0.304727 -0.522247,0.233554 -0.72915,0.427427 -0.726134,0.680377 0.0032,0.274715 0.104701,0.251444 1.304652,-0.299685 0.702673,-0.322722 1.260521,-0.541654 1.352196,-0.530683 0.12107,0.01508 0.191864,0.100537 0.316232,0.384595 0.08818,0.201235 0.145554,0.403622 0.127528,0.449736 -0.04268,0.109259 -3.834692,1.836586 -4.031802,1.836586 -0.12017,0 -0.188565,-0.07807 -0.338566,-0.386769 z m -16.902158,-0.01508 c -0.205942,-0.115914 -0.738973,-0.756016 -0.738973,-0.887453 0,-0.06283 0.417442,-0.668505 0.927669,-1.34591 2.233756,-2.965738 2.449342,-3.293234 2.450768,-3.722966 7.51e-4,-0.213639 -0.69541,-2.783534 -0.77636,-2.866077 -0.104547,-0.106597 -0.551491,-0.168679 -0.634062,-0.08796 -0.04341,0.04228 -0.252148,0.551603 -0.463829,1.131563 l -0.38489,1.054476 h -1.38818 c -1.350248,0 -1.403588,-0.0059 -1.952361,-0.181897 -0.569816,-0.183699 -1.092873,-0.527489 -1.092873,-0.718331 0,-0.05041 0.481597,-0.731074 1.07025,-1.512889 0.58864,-0.781801 1.071138,-1.456664 1.072205,-1.499702 0.0015,-0.103492 -0.338098,-0.273266 -0.548682,-0.273266 -0.127982,0 -0.441566,0.258394 -1.334656,1.099569 -0.642086,0.604754 -1.286619,1.178296 -1.432295,1.27453 -0.380954,0.251635 -0.808445,0.315817 -1.970093,0.295813 l -1.026677,-0.0176 2.147754,-1.93372 c 1.397488,-1.258226 2.1355,-1.965037 2.112742,-2.023393 -0.04807,-0.123452 -0.413701,-0.288995 -0.539699,-0.244407 -0.05664,0.02011 -1.419092,0.919818 -3.027411,1.999397 -1.608306,1.079564 -3.022968,2.012123 -3.143686,2.072357 -0.189225,0.09448 -0.453491,0.11059 -1.916989,0.117538 -1.874644,0.0089 -2.327282,-0.0408 -3.20351,-0.351357 -0.560103,-0.198515 -2.071012,-1.116112 -2.143448,-1.30175 -0.08503,-0.217957 0.207343,-0.432497 1.216339,-0.892597 2.200685,-1.003468 4.941612,-2.365286 9.711165,-4.824946 3.511246,-1.810771 3.922889,-1.999187 4.381069,-2.005294 0.382321,-0.0046 0.396202,0.0013 1.223153,0.555004 l 0.836403,0.560164 -0.02779,0.570571 c -0.03424,0.705423 0.006,0.868484 0.238118,0.987012 0.205372,0.104379 1.141018,0.345755 2.121621,0.547167 0.818315,0.168088 0.903396,0.204162 1.047585,0.44422 0.142252,0.236806 0.177656,0.238908 0.619282,0.03683 0.497731,-0.227891 0.678226,-0.206867 1.43653,0.167408 l 0.664181,0.327792 0.658834,-0.327792 c 0.365048,-0.181645 0.747383,-0.327807 0.85743,-0.327807 0.109204,0 0.380008,0.07732 0.601693,0.171917 l 0.403082,0.171917 0.123624,-0.150108 c 0.06804,-0.08264 0.146308,-0.190162 0.174201,-0.239011 0.03019,-0.05322 0.477213,-0.179132 1.112552,-0.313614 0.584117,-0.123598 1.292626,-0.296432 1.574485,-0.384004 0.630759,-0.195969 0.665475,-0.258051 0.612313,-1.095264 l -0.03755,-0.591994 0.851165,-0.557635 c 0.835442,-0.547345 0.858244,-0.55756 1.233207,-0.552535 0.462999,0.0059 0.734676,0.132176 4.670432,2.166671 3.29444,1.702946 8.069947,4.073746 9.389992,4.661632 0.536115,0.238742 1.025925,0.478271 1.088465,0.532249 0.0624,0.05398 0.11372,0.176797 0.11372,0.272897 0,0.149961 -0.0897,0.233656 -0.63357,0.590723 -0.797805,0.523762 -1.3073,0.774112 -1.911917,0.939464 -0.69623,0.190412 -2.136024,0.277345 -3.504925,0.211613 l -1.144203,-0.05501 -1.097691,-0.729846 c -0.603729,-0.401421 -1.945708,-1.303154 -2.982181,-2.003875 -1.036479,-0.700721 -1.974561,-1.311626 -2.084654,-1.357561 -0.175909,-0.07333 -0.225074,-0.0686 -0.406126,0.03963 -0.11326,0.06786 -0.20599,0.149946 -0.20599,0.182739 0,0.07571 0.41857,0.466708 2.469337,2.306961 0.911369,0.81783 1.700904,1.528176 1.75453,1.578547 0.08471,0.07954 -0.06386,0.08886 -1.137199,0.07127 -1.635173,-0.02662 -1.563809,0.0072 -3.179078,-1.51425 -0.889505,-0.837848 -1.272336,-1.158205 -1.384093,-1.158205 -0.203029,0 -0.537959,0.17285 -0.537959,0.277599 0,0.04539 0.471142,0.712193 1.046984,1.481724 0.575862,0.769499 1.059443,1.430967 1.07464,1.469911 0.04612,0.118278 -0.206891,0.377128 -0.54602,0.558655 -0.599459,0.320872 -1.268253,0.429274 -2.647826,0.429171 l -1.234675,-1.48e-4 -0.389892,-1.091304 c -0.214429,-0.600217 -0.420145,-1.115995 -0.457098,-1.146202 -0.07557,-0.0618 -0.532505,0.02276 -0.627319,0.116061 -0.0338,0.03311 -0.23672,0.690875 -0.451104,1.461575 L 80.365,27.909749 80.504097,28.27564 c 0.136844,0.35958 0.608031,1.026399 2.424164,3.430215 0.464233,0.614482 0.856484,1.163896 0.871655,1.220937 0.02974,0.111919 -0.551956,0.842418 -0.756863,0.950242 -0.09388,0.04938 -0.337376,-0.0059 -1.038901,-0.234324 l -0.91618,-0.298933 -0.660155,-1.143375 c -0.86383,-1.496169 -0.8014,-1.425586 -1.142263,-1.291459 -0.149762,0.059 -0.288243,0.157177 -0.307996,0.218414 -0.01982,0.06121 0.06368,0.521235 0.185588,1.022259 0.218154,0.897063 0.219401,0.910354 0.08232,0.873628 -0.286757,-0.07674 -2.242768,-0.111181 -2.86857,-0.05026 -0.357416,0.03459 -0.656085,0.05736 -0.663745,0.05057 -0.0074,-0.0072 0.0724,-0.370475 0.177911,-0.808178 0.212041,-0.879601 0.232877,-1.101342 0.112211,-1.194144 -0.131438,-0.100981 -0.479676,-0.19924 -0.547482,-0.154382 -0.03424,0.02276 -0.382201,0.59538 -0.772874,1.272446 -0.691987,1.199245 -0.717058,1.232778 -0.970271,1.298895 -0.143002,0.03725 -0.523117,0.155727 -0.844766,0.263123 -0.321666,0.107485 -0.614086,0.20499 -0.649838,0.216891 -0.03575,0.01182 -0.12723,-0.01329 -0.203252,-0.05618 z m 26.723003,-0.580704 c -0.09072,-0.188726 -0.181609,-0.454747 -0.201833,-0.591167 -0.05754,-0.387847 0.0634,-0.538577 0.585771,-0.72986 0.627059,-0.229607 0.839279,-0.347721 0.965694,-0.537469 0.0598,-0.08958 0.13399,-0.163046 0.16474,-0.163046 0.0986,0 0.1412,0.531171 0.0717,0.894742 -0.0855,0.448286 -0.22047,0.626679 -0.646275,0.854408 -0.20202,0.108076 -0.39608,0.272098 -0.47247,0.399437 -0.07122,0.118869 -0.168473,0.216064 -0.215956,0.216064 -0.04745,0 -0.160605,-0.154395 -0.251382,-0.343109 z m 2.370082,-0.945289 c -0.21344,-0.420092 -0.26263,-0.84508 -0.11881,-1.026384 0.0448,-0.05633 0.31516,-0.19597 0.6011,-0.310361 0.35938,-0.143706 0.59459,-0.286378 0.76205,-0.462094 0.21764,-0.228411 0.2472,-0.241908 0.29179,-0.133211 0.0272,0.06653 0.0482,0.308141 0.0466,0.536979 -0.005,0.592233 -0.15627,0.864788 -0.63547,1.137744 -0.27013,0.153878 -0.40629,0.278943 -0.472,0.433649 -0.0506,0.119461 -0.13339,0.217395 -0.18388,0.217395 -0.0504,0 -0.18156,-0.177136 -0.29155,-0.393659 z m -2.694906,-0.793893 c -0.08156,-0.208923 -0.03455,-0.635166 0.09989,-0.908477 0.111307,-0.225938 0.20621,-0.313642 0.471131,-0.434965 0.58864,-0.269569 1.087005,-0.170955 1.177195,0.232963 0.0607,0.271639 -0.0275,0.347099 -0.638805,0.547344 -0.389094,0.127445 -0.598881,0.239409 -0.785253,0.419072 -0.139846,0.134838 -0.261126,0.245161 -0.269484,0.245161 -0.0078,0 -0.0329,-0.04555 -0.05464,-0.101128 z m 2.257566,-0.827914 c -0.0752,-0.192142 0.0194,-0.799647 0.1514,-0.974948 0.31004,-0.411665 0.9757,-0.639867 1.3173,-0.451556 0.21534,0.118722 0.36881,0.424263 0.28177,0.561022 -0.0353,0.05546 -0.32323,0.192777 -0.63982,0.305098 -0.41717,0.147995 -0.63558,0.266745 -0.79355,0.431388 -0.24713,0.257638 -0.26421,0.264556 -0.3171,0.129069 z M 76.831824,19.046767 c -0.336401,-0.177623 -0.672322,-0.309784 -0.790749,-0.31113 -0.113261,-0.0013 -0.420296,0.0989 -0.682313,0.222674 -0.327554,0.154692 -0.481132,0.199608 -0.49148,0.143855 -0.0073,-0.04465 0.185017,-0.728294 0.429563,-1.519173 0.244546,-0.790878 0.434805,-1.455658 0.422789,-1.477259 -0.01201,-0.0216 -0.474343,-0.304638 -1.027396,-0.628896 -0.86931,-0.509718 -1.032413,-0.583804 -1.203775,-0.546783 l -0.198208,0.04273 0.332799,-0.532324 c 0.496604,-0.79438 0.527727,-0.820004 0.994438,-0.819559 0.217131,1.93e-4 0.637534,0.01893 0.934173,0.04169 l 0.539356,0.04125 0.255767,0.453624 c 0.140748,0.249493 0.263487,0.474145 0.272921,0.499221 0.009,0.02498 0.216127,-0.0133 0.459322,-0.08738 0.377618,-0.113695 0.439266,-0.15246 0.422367,-0.266437 -0.01982,-0.133204 -0.357973,-0.414379 -0.774422,-0.643852 l -0.220077,-0.121382 0.344813,-0.08841 0.344813,-0.08841 0.825661,0.445093 c 0.454109,0.244792 0.890446,0.512898 0.969623,0.59578 0.109356,0.114582 0.287222,0.699168 0.74025,2.433725 0.327944,1.25565 0.581339,2.297692 0.563103,2.31564 -0.01817,0.01789 -0.273854,-0.06875 -0.568075,-0.192586 -0.294206,-0.123895 -0.600716,-0.225185 -0.681156,-0.225185 -0.08051,0 -0.445186,0.143856 -0.810608,0.319572 -0.365422,0.17573 -0.699121,0.315742 -0.741556,0.311099 -0.04251,-0.0046 -0.340292,-0.147404 -0.661943,-0.317206 z m -3.917265,-0.918721 c -0.404522,-0.124191 -0.469069,-0.198572 -0.469069,-0.540381 0,-0.450698 0.266478,-0.913177 0.858872,-1.490608 0.27947,-0.272425 0.531258,-0.495319 0.559513,-0.495319 0.02839,0 0.10635,0.03947 0.17348,0.08783 0.118969,0.08546 0.119119,0.114284 0.0074,1.102436 -0.175613,1.566262 -0.12633,1.43079 -0.518985,1.425761 -0.183649,-0.0029 -0.459127,-0.04257 -0.612163,-0.08959 z m 0.622918,-5.354296 c -1.095892,-1.10072 -1.860235,-2.055444 -2.034513,-2.541226 -0.259133,-0.7223048 0.417052,-1.4791498 1.68339,-1.8842948 l 0.553174,-0.176974 1.024557,0.432262 c 1.771789,0.747514 0.959545,0.67118 7.14232,0.67118 3.151183,0 5.477546,0.0247 5.569456,0.05914 0.198931,0.07451 0.247751,0.190368 0.297799,0.7078918 l 0.04011,0.415421 0.286909,-0.0133 c 0.187797,-0.0089 0.50909,-0.11798 0.930225,-0.316584 0.535098,-0.2524188 0.653361,-0.2878438 0.703103,-0.2105488 0.10019,0.1558168 0.07568,0.2109638 -0.335056,0.7524238 -0.23741,0.313006 -0.381836,0.561404 -0.359588,0.618475 0.02042,0.05248 0.133233,0.154972 0.25058,0.227858 0.222165,0.137943 0.364631,0.140013 1.425026,0.02083 0.324955,-0.03668 0.37487,-0.02646 0.436794,0.08723 0.06427,0.118277 0.0047,0.161391 -0.75678,0.543769 -1.06944,0.53726 -1.547596,0.697424 -2.19132,0.734001 -0.461917,0.02616 -0.539756,0.0133 -0.698545,-0.109555 -0.16405,-0.127593 -0.178715,-0.175302 -0.178715,-0.580521 v -0.441423 l -5.929652,-0.01729 -5.929636,-0.01729 -0.733608,-0.406417 -0.733581,-0.406387 -0.260243,0.177358 c -0.143153,0.09758 -0.275761,0.202078 -0.294734,0.232254 -0.01909,0.03016 0.187105,0.471155 0.45791,0.979974 l 0.492382,0.925092 h -0.198266 c -0.160382,0 -0.286397,-0.08841 -0.659569,-0.463339 z"
       id="path19013" />
    <text
       xml:space="preserve"
       transform="matrix(1.0863206,0,0,1.1088993,750.67449,-421.18501)"
       id="text39682"
       style="font-size:40px;line-height:0.75;font-family:sans-serif;letter-spacing:0px;white-space:pre;shape-inside:url(#rect39684);fill:#ffffff"
       x="51.1199"
       y="0"><tspan
         x="-673.1228"
         y="476.31353"
         id="tspan8911"><tspan
           style="font-family:'Daddy Day';-inkscape-font-specification:'Daddy Day';text-align:center;text-anchor:middle"
           id="tspan8909">MARINE
</tspan></tspan><tspan
         x="-670.98275"
         y="507.80675"
         id="tspan8915"><tspan
           style="font-family:'Daddy Day';-inkscape-font-specification:'Daddy Day';text-align:center;text-anchor:middle"
           id="tspan8913">CODERS</tspan></tspan></text>
  </g>
</svg>
